M48
; DRILL file {KiCad 9.0.5} date 2026-01-17T00:35:39+0100
; FORMAT={-:-/ absolute / metric / decimal}
; #@! TF.CreationDate,2026-01-17T00:35:39+01:00
; #@! TF.GenerationSoftware,Kicad,Pcbnew,9.0.5
; #@! TF.FileFunction,Plated,1,2,PTH
FMAT,2
METRIC
; #@! TA.AperFunction,Plated,PTH,ViaDrill
T1C0.300
; #@! TA.AperFunction,Plated,PTH,ComponentDrill
T2C0.950
; #@! TA.AperFunction,Plated,PTH,ComponentDrill
T3C1.000
%
G90
G05
T1
X110.25Y-95.15
X115.25Y-95.25
T2
X72.0Y-56.5
X72.0Y-59.0
X72.0Y-61.5
X73.0Y-68.25
X73.0Y-70.75
X73.0Y-73.25
X73.0Y-75.75
X105.25Y-42.75
X105.25Y-52.0
X105.25Y-61.0
X105.25Y-70.0
X105.25Y-79.5
X105.25Y-89.0
X107.75Y-42.75
X107.75Y-52.0
X107.75Y-61.0
X107.75Y-70.0
X107.75Y-79.5
X107.75Y-89.0
X110.25Y-42.75
X110.25Y-52.0
X110.25Y-61.0
X110.25Y-70.0
X110.25Y-79.5
X110.25Y-89.0
X112.75Y-42.75
X112.75Y-52.0
X112.75Y-61.0
X112.75Y-70.0
X112.75Y-79.5
X112.75Y-89.0
X115.25Y-42.75
X115.25Y-52.0
X115.25Y-61.0
X115.25Y-70.0
X115.25Y-79.5
X115.25Y-89.0
X117.75Y-42.75
X117.75Y-52.0
X117.75Y-61.0
X117.75Y-70.0
X117.75Y-79.5
X117.75Y-89.0
T3
X72.0Y-47.25
X72.0Y-49.75
X73.0Y-82.5
X73.0Y-85.0
X81.51Y-42.67
X81.51Y-45.21
X81.51Y-47.75
X81.51Y-50.29
X81.51Y-52.83
X81.51Y-55.37
X81.51Y-57.91
X81.51Y-60.45
X81.51Y-62.99
X81.51Y-65.53
X81.51Y-68.07
X81.51Y-70.61
X81.51Y-73.15
X81.51Y-75.69
X81.51Y-78.23
X81.51Y-80.77
X81.51Y-83.31
X81.51Y-85.85
X81.51Y-88.39
X81.51Y-90.93
X96.75Y-42.67
X96.75Y-45.21
X96.75Y-47.75
X96.75Y-50.29
X96.75Y-52.83
X96.75Y-55.37
X96.75Y-57.91
X96.75Y-60.45
X96.75Y-62.99
X96.75Y-65.53
X96.75Y-68.07
X96.75Y-70.61
X96.75Y-73.15
X96.75Y-75.69
X96.75Y-78.23
X96.75Y-80.77
X96.75Y-83.31
X96.75Y-85.85
X96.75Y-88.39
X96.75Y-90.93
M30
