%TF.GenerationSoftware,KiCad,Pcbnew,9.0.5*%
%TF.CreationDate,2026-01-17T00:35:45+01:00*%
%TF.ProjectId,replicazeron_stm,7265706c-6963-4617-9a65-726f6e5f7374,rev?*%
%TF.SameCoordinates,Original*%
%TF.FileFunction,Copper,L2,Bot*%
%TF.FilePolarity,Positive*%
%FSLAX46Y46*%
G04 Gerber Fmt 4.6, Leading zero omitted, Abs format (unit mm)*
G04 Created by KiCad (PCBNEW 9.0.5) date 2026-01-17 00:35:45*
%MOMM*%
%LPD*%
G01*
G04 APERTURE LIST*
G04 Aperture macros list*
%AMRoundRect*
0 Rectangle with rounded corners*
0 $1 Rounding radius*
0 $2 $3 $4 $5 $6 $7 $8 $9 X,Y pos of 4 corners*
0 Add a 4 corners polygon primitive as box body*
4,1,4,$2,$3,$4,$5,$6,$7,$8,$9,$2,$3,0*
0 Add four circle primitives for the rounded corners*
1,1,$1+$1,$2,$3*
1,1,$1+$1,$4,$5*
1,1,$1+$1,$6,$7*
1,1,$1+$1,$8,$9*
0 Add four rect primitives between the rounded corners*
20,1,$1+$1,$2,$3,$4,$5,0*
20,1,$1+$1,$4,$5,$6,$7,0*
20,1,$1+$1,$6,$7,$8,$9,0*
20,1,$1+$1,$8,$9,$2,$3,0*%
G04 Aperture macros list end*
%TA.AperFunction,ComponentPad*%
%ADD10O,2.000000X1.700000*%
%TD*%
%TA.AperFunction,ComponentPad*%
%ADD11RoundRect,0.250000X-0.750000X0.600000X-0.750000X-0.600000X0.750000X-0.600000X0.750000X0.600000X0*%
%TD*%
%TA.AperFunction,ComponentPad*%
%ADD12RoundRect,0.250000X0.750000X-0.600000X0.750000X0.600000X-0.750000X0.600000X-0.750000X-0.600000X0*%
%TD*%
%TA.AperFunction,ComponentPad*%
%ADD13RoundRect,0.250000X0.600000X0.725000X-0.600000X0.725000X-0.600000X-0.725000X0.600000X-0.725000X0*%
%TD*%
%TA.AperFunction,ComponentPad*%
%ADD14O,1.700000X1.950000*%
%TD*%
%TA.AperFunction,ComponentPad*%
%ADD15RoundRect,0.250000X-0.725000X0.600000X-0.725000X-0.600000X0.725000X-0.600000X0.725000X0.600000X0*%
%TD*%
%TA.AperFunction,ComponentPad*%
%ADD16O,1.950000X1.700000*%
%TD*%
%TA.AperFunction,ComponentPad*%
%ADD17RoundRect,0.250000X-0.600000X-0.725000X0.600000X-0.725000X0.600000X0.725000X-0.600000X0.725000X0*%
%TD*%
%TA.AperFunction,ComponentPad*%
%ADD18RoundRect,0.250000X0.725000X-0.600000X0.725000X0.600000X-0.725000X0.600000X-0.725000X-0.600000X0*%
%TD*%
%TA.AperFunction,ComponentPad*%
%ADD19R,1.700000X1.700000*%
%TD*%
%TA.AperFunction,ComponentPad*%
%ADD20C,1.700000*%
%TD*%
%TA.AperFunction,SMDPad,CuDef*%
%ADD21RoundRect,0.125000X0.125000X-0.125000X0.125000X0.125000X-0.125000X0.125000X-0.125000X-0.125000X0*%
%TD*%
%TA.AperFunction,ViaPad*%
%ADD22C,0.600000*%
%TD*%
%TA.AperFunction,Conductor*%
%ADD23C,0.200000*%
%TD*%
G04 APERTURE END LIST*
D10*
%TO.P,J7_Stick1,2,Pin_2*%
%TO.N,axis_1*%
X73000000Y-85000000D03*
D11*
%TO.P,J7_Stick1,1,Pin_1*%
%TO.N,axis_0*%
X73000000Y-82500000D03*
%TD*%
D12*
%TO.P,J8_LED1,1,Pin_1*%
%TO.N,led0*%
X72000000Y-49750000D03*
D10*
%TO.P,J8_LED1,2,Pin_2*%
%TO.N,led1*%
X72000000Y-47250000D03*
%TD*%
D13*
%TO.P,J5_Ring1,1,Pin_1*%
%TO.N,Net-(D12-A)*%
X117750000Y-52000000D03*
D14*
%TO.P,J5_Ring1,2,Pin_2*%
%TO.N,Net-(D11-A)*%
X115250000Y-52000000D03*
%TO.P,J5_Ring1,3,Pin_3*%
%TO.N,Net-(D10-A)*%
X112750000Y-52000000D03*
%TO.P,J5_Ring1,4,Pin_4*%
%TO.N,Net-(D9-A)*%
X110250000Y-52000000D03*
%TO.P,J5_Ring1,5,Pin_5*%
%TO.N,Net-(D8-A)*%
X107750000Y-52000000D03*
%TO.P,J5_Ring1,6,Pin_6*%
%TO.N,Net-(D7-A)*%
X105250000Y-52000000D03*
%TD*%
D15*
%TO.P,J10,1,Pin_1*%
%TO.N,GND*%
X73000000Y-68250000D03*
D16*
%TO.P,J10,2,Pin_2*%
%TO.N,i2c_sda*%
X73000000Y-70750000D03*
%TO.P,J10,3,Pin_3*%
%TO.N,i2c_scl*%
X73000000Y-73250000D03*
%TO.P,J10,4,Pin_4*%
%TO.N,+3.3V*%
X73000000Y-75750000D03*
%TD*%
D13*
%TO.P,J6_Pinky1,1,Pin_1*%
%TO.N,Net-(D6-A)*%
X117750000Y-61000000D03*
D14*
%TO.P,J6_Pinky1,2,Pin_2*%
%TO.N,Net-(D5-A)*%
X115250000Y-61000000D03*
%TO.P,J6_Pinky1,3,Pin_3*%
%TO.N,Net-(D4-A)*%
X112750000Y-61000000D03*
%TO.P,J6_Pinky1,4,Pin_4*%
%TO.N,Net-(D3-A)*%
X110250000Y-61000000D03*
%TO.P,J6_Pinky1,5,Pin_5*%
%TO.N,Net-(D2-A)*%
X107750000Y-61000000D03*
%TO.P,J6_Pinky1,6,Pin_6*%
%TO.N,Net-(D1-A)*%
X105250000Y-61000000D03*
%TD*%
D17*
%TO.P,J1_Col1,1,Pin_1*%
%TO.N,col_0*%
X105250000Y-42750000D03*
D14*
%TO.P,J1_Col1,2,Pin_2*%
%TO.N,col_1*%
X107750000Y-42750000D03*
%TO.P,J1_Col1,3,Pin_3*%
X110250000Y-42750000D03*
%TO.P,J1_Col1,4,Pin_4*%
%TO.N,col_2*%
X112750000Y-42750000D03*
%TO.P,J1_Col1,5,Pin_5*%
%TO.N,col_3*%
X115250000Y-42750000D03*
%TO.P,J1_Col1,6,Pin_6*%
%TO.N,col_4*%
X117750000Y-42750000D03*
%TD*%
D13*
%TO.P,J3_Index1,1,Pin_1*%
%TO.N,Net-(D24-A)*%
X117750000Y-79500000D03*
D14*
%TO.P,J3_Index1,2,Pin_2*%
%TO.N,Net-(D23-A)*%
X115250000Y-79500000D03*
%TO.P,J3_Index1,3,Pin_3*%
%TO.N,Net-(D22-A)*%
X112750000Y-79500000D03*
%TO.P,J3_Index1,4,Pin_4*%
%TO.N,Net-(D21-A)*%
X110250000Y-79500000D03*
%TO.P,J3_Index1,5,Pin_5*%
%TO.N,Net-(D20-A)*%
X107750000Y-79500000D03*
%TO.P,J3_Index1,6,Pin_6*%
%TO.N,Net-(D19-A)*%
X105250000Y-79500000D03*
%TD*%
D18*
%TO.P,J9,1,Pin_1*%
%TO.N,GND*%
X72000000Y-61500000D03*
D16*
%TO.P,J9,2,Pin_2*%
%TO.N,ws2812*%
X72000000Y-59000000D03*
%TO.P,J9,3,Pin_3*%
%TO.N,+5V*%
X72000000Y-56500000D03*
%TD*%
D19*
%TO.P,U2,1,PB12*%
%TO.N,led1*%
X81510000Y-42670000D03*
D20*
%TO.P,U2,2,PB13*%
%TO.N,led0*%
X81510000Y-45210000D03*
%TO.P,U2,3,PB14*%
%TO.N,ws2812*%
X81510000Y-47750000D03*
%TO.P,U2,4,PB15*%
%TO.N,row_4*%
X81510000Y-50290000D03*
%TO.P,U2,5,PA8*%
%TO.N,row_1*%
X81510000Y-52830000D03*
%TO.P,U2,6,PA9*%
%TO.N,row_2*%
X81510000Y-55370000D03*
%TO.P,U2,7,PA10*%
%TO.N,row_3*%
X81510000Y-57910000D03*
%TO.P,U2,8,PA11*%
%TO.N,unconnected-(U2-PA11-Pad8)*%
X81510000Y-60450000D03*
%TO.P,U2,9,PA12*%
%TO.N,unconnected-(U2-PA12-Pad9)*%
X81510000Y-62990000D03*
%TO.P,U2,10,PA15*%
%TO.N,row_0*%
X81510000Y-65530000D03*
%TO.P,U2,11,PB3*%
%TO.N,row_5*%
X81510000Y-68070000D03*
%TO.P,U2,12,PB4*%
%TO.N,col_4*%
X81510000Y-70610000D03*
%TO.P,U2,13,PB5*%
%TO.N,unconnected-(U2-PB5-Pad13)*%
X81510000Y-73150000D03*
%TO.P,U2,14,PB6*%
%TO.N,unconnected-(U2-PB6-Pad14)*%
X81510000Y-75690000D03*
%TO.P,U2,15,PB7*%
%TO.N,unconnected-(U2-PB7-Pad15)*%
X81510000Y-78230000D03*
%TO.P,U2,16,PB8*%
%TO.N,unconnected-(U2-PB8-Pad16)*%
X81510000Y-80770000D03*
%TO.P,U2,17,PB9*%
%TO.N,unconnected-(U2-PB9-Pad17)*%
X81510000Y-83310000D03*
%TO.P,U2,18,5V*%
%TO.N,+5V*%
X81510000Y-85850000D03*
%TO.P,U2,19,GND*%
%TO.N,GND*%
X81510000Y-88390000D03*
%TO.P,U2,20,3V3*%
%TO.N,+3.3V*%
X81510000Y-90930000D03*
%TO.P,U2,21,VBat*%
%TO.N,unconnected-(U2-VBat-Pad21)*%
X96750000Y-90930000D03*
%TO.P,U2,22,PC13*%
%TO.N,unconnected-(U2-PC13-Pad22)*%
X96750000Y-88390000D03*
%TO.P,U2,23,PC14*%
%TO.N,unconnected-(U2-PC14-Pad23)*%
X96750000Y-85850000D03*
%TO.P,U2,24,PC15*%
%TO.N,unconnected-(U2-PC15-Pad24)*%
X96750000Y-83310000D03*
%TO.P,U2,25,PA0*%
%TO.N,unconnected-(U2-PA0-Pad25)*%
X96750000Y-80770000D03*
%TO.P,U2,26,PA1*%
%TO.N,unconnected-(U2-PA1-Pad26)*%
X96750000Y-78230000D03*
%TO.P,U2,27,PA2*%
%TO.N,unconnected-(U2-PA2-Pad27)*%
X96750000Y-75690000D03*
%TO.P,U2,28,PA3*%
%TO.N,unconnected-(U2-PA3-Pad28)*%
X96750000Y-73150000D03*
%TO.P,U2,29,PA4*%
%TO.N,col_3*%
X96750000Y-70610000D03*
%TO.P,U2,30,PA5*%
%TO.N,col_2*%
X96750000Y-68070000D03*
%TO.P,U2,31,PA6*%
%TO.N,col_1*%
X96750000Y-65530000D03*
%TO.P,U2,32,PA7*%
%TO.N,col_0*%
X96750000Y-62990000D03*
%TO.P,U2,33,PB0*%
%TO.N,axis_1*%
X96750000Y-60450000D03*
%TO.P,U2,34,PB1*%
%TO.N,axis_0*%
X96750000Y-57910000D03*
%TO.P,U2,35,PB10*%
%TO.N,i2c_scl*%
X96750000Y-55370000D03*
%TO.P,U2,36,PB11*%
%TO.N,i2c_sda*%
X96750000Y-52830000D03*
%TO.P,U2,37,RST*%
%TO.N,unconnected-(U2-RST-Pad37)*%
X96750000Y-50290000D03*
%TO.P,U2,38,3V3*%
%TO.N,+3.3V*%
X96750000Y-47750000D03*
%TO.P,U2,39,GND*%
%TO.N,GND*%
X96750000Y-45210000D03*
%TO.P,U2,40,GND*%
X96750000Y-42670000D03*
%TD*%
D13*
%TO.P,J2_Thumb1,1,Pin_1*%
%TO.N,Net-(D30-A)*%
X117750000Y-89000000D03*
D14*
%TO.P,J2_Thumb1,2,Pin_2*%
%TO.N,Net-(D29-A)*%
X115250000Y-89000000D03*
%TO.P,J2_Thumb1,3,Pin_3*%
%TO.N,Net-(D28-A)*%
X112750000Y-89000000D03*
%TO.P,J2_Thumb1,4,Pin_4*%
%TO.N,Net-(D27-A)*%
X110250000Y-89000000D03*
%TO.P,J2_Thumb1,5,Pin_5*%
%TO.N,Net-(D26-A)*%
X107750000Y-89000000D03*
%TO.P,J2_Thumb1,6,Pin_6*%
%TO.N,Net-(D25-A)*%
X105250000Y-89000000D03*
%TD*%
D13*
%TO.P,J4_Mid1,1,Pin_1*%
%TO.N,Net-(D18-A)*%
X117750000Y-70000000D03*
D14*
%TO.P,J4_Mid1,2,Pin_2*%
%TO.N,Net-(D17-A)*%
X115250000Y-70000000D03*
%TO.P,J4_Mid1,3,Pin_3*%
%TO.N,Net-(D16-A)*%
X112750000Y-70000000D03*
%TO.P,J4_Mid1,4,Pin_4*%
%TO.N,Net-(D15-A)*%
X110250000Y-70000000D03*
%TO.P,J4_Mid1,5,Pin_5*%
%TO.N,Net-(D14-A)*%
X107750000Y-70000000D03*
%TO.P,J4_Mid1,6,Pin_6*%
%TO.N,Net-(D13-A)*%
X105250000Y-70000000D03*
%TD*%
D21*
%TO.P,D6,1,K*%
%TO.N,row_0*%
X117750000Y-66100000D03*
%TO.P,D6,2,A*%
%TO.N,Net-(D6-A)*%
X117750000Y-63900000D03*
%TD*%
%TO.P,D5,1,K*%
%TO.N,row_1*%
X115250000Y-66100000D03*
%TO.P,D5,2,A*%
%TO.N,Net-(D5-A)*%
X115250000Y-63900000D03*
%TD*%
%TO.P,D19,1,K*%
%TO.N,row_5*%
X105250000Y-84600000D03*
%TO.P,D19,2,A*%
%TO.N,Net-(D19-A)*%
X105250000Y-82400000D03*
%TD*%
%TO.P,D25,1,K*%
%TO.N,row_5*%
X105250000Y-94100000D03*
%TO.P,D25,2,A*%
%TO.N,Net-(D25-A)*%
X105250000Y-91900000D03*
%TD*%
%TO.P,D4,1,K*%
%TO.N,row_2*%
X112750000Y-66100000D03*
%TO.P,D4,2,A*%
%TO.N,Net-(D4-A)*%
X112750000Y-63900000D03*
%TD*%
%TO.P,D15,1,K*%
%TO.N,row_3*%
X110250000Y-75100000D03*
%TO.P,D15,2,A*%
%TO.N,Net-(D15-A)*%
X110250000Y-72900000D03*
%TD*%
%TO.P,D10,1,K*%
%TO.N,row_2*%
X112750000Y-57100000D03*
%TO.P,D10,2,A*%
%TO.N,Net-(D10-A)*%
X112750000Y-54900000D03*
%TD*%
%TO.P,D17,1,K*%
%TO.N,row_1*%
X115250000Y-75100000D03*
%TO.P,D17,2,A*%
%TO.N,Net-(D17-A)*%
X115250000Y-72900000D03*
%TD*%
%TO.P,D11,1,K*%
%TO.N,row_1*%
X115250000Y-57100000D03*
%TO.P,D11,2,A*%
%TO.N,Net-(D11-A)*%
X115250000Y-54900000D03*
%TD*%
%TO.P,D18,1,K*%
%TO.N,row_0*%
X117750000Y-75100000D03*
%TO.P,D18,2,A*%
%TO.N,Net-(D18-A)*%
X117750000Y-72900000D03*
%TD*%
%TO.P,D13,1,K*%
%TO.N,row_5*%
X105250000Y-75100000D03*
%TO.P,D13,2,A*%
%TO.N,Net-(D13-A)*%
X105250000Y-72900000D03*
%TD*%
%TO.P,D8,1,K*%
%TO.N,row_4*%
X107750000Y-57100000D03*
%TO.P,D8,2,A*%
%TO.N,Net-(D8-A)*%
X107750000Y-54900000D03*
%TD*%
%TO.P,D29,1,K*%
%TO.N,row_1*%
X115250000Y-94100000D03*
%TO.P,D29,2,A*%
%TO.N,Net-(D29-A)*%
X115250000Y-91900000D03*
%TD*%
%TO.P,D12,1,K*%
%TO.N,row_0*%
X117750000Y-57100000D03*
%TO.P,D12,2,A*%
%TO.N,Net-(D12-A)*%
X117750000Y-54900000D03*
%TD*%
%TO.P,D14,1,K*%
%TO.N,row_4*%
X107750000Y-75100000D03*
%TO.P,D14,2,A*%
%TO.N,Net-(D14-A)*%
X107750000Y-72900000D03*
%TD*%
%TO.P,D27,1,K*%
%TO.N,row_3*%
X110250000Y-94100000D03*
%TO.P,D27,2,A*%
%TO.N,Net-(D27-A)*%
X110250000Y-91900000D03*
%TD*%
%TO.P,D22,1,K*%
%TO.N,row_2*%
X112750000Y-84600000D03*
%TO.P,D22,2,A*%
%TO.N,Net-(D22-A)*%
X112750000Y-82400000D03*
%TD*%
%TO.P,D30,1,K*%
%TO.N,row_0*%
X117750000Y-94100000D03*
%TO.P,D30,2,A*%
%TO.N,Net-(D30-A)*%
X117750000Y-91900000D03*
%TD*%
%TO.P,D2,1,K*%
%TO.N,row_4*%
X107750000Y-66100000D03*
%TO.P,D2,2,A*%
%TO.N,Net-(D2-A)*%
X107750000Y-63900000D03*
%TD*%
%TO.P,D20,1,K*%
%TO.N,row_4*%
X107750000Y-84600000D03*
%TO.P,D20,2,A*%
%TO.N,Net-(D20-A)*%
X107750000Y-82400000D03*
%TD*%
%TO.P,D23,1,K*%
%TO.N,row_1*%
X115250000Y-84600000D03*
%TO.P,D23,2,A*%
%TO.N,Net-(D23-A)*%
X115250000Y-82400000D03*
%TD*%
%TO.P,D28,1,K*%
%TO.N,row_2*%
X112750000Y-94100000D03*
%TO.P,D28,2,A*%
%TO.N,Net-(D28-A)*%
X112750000Y-91900000D03*
%TD*%
%TO.P,D3,1,K*%
%TO.N,row_3*%
X110250000Y-66100000D03*
%TO.P,D3,2,A*%
%TO.N,Net-(D3-A)*%
X110250000Y-63900000D03*
%TD*%
%TO.P,D7,1,K*%
%TO.N,row_5*%
X105250000Y-57100000D03*
%TO.P,D7,2,A*%
%TO.N,Net-(D7-A)*%
X105250000Y-54900000D03*
%TD*%
%TO.P,D24,1,K*%
%TO.N,row_0*%
X117750000Y-84600000D03*
%TO.P,D24,2,A*%
%TO.N,Net-(D24-A)*%
X117750000Y-82400000D03*
%TD*%
%TO.P,D21,1,K*%
%TO.N,row_3*%
X110250000Y-84600000D03*
%TO.P,D21,2,A*%
%TO.N,Net-(D21-A)*%
X110250000Y-82400000D03*
%TD*%
%TO.P,D16,1,K*%
%TO.N,row_2*%
X112750000Y-75100000D03*
%TO.P,D16,2,A*%
%TO.N,Net-(D16-A)*%
X112750000Y-72900000D03*
%TD*%
%TO.P,D26,1,K*%
%TO.N,row_4*%
X107750000Y-94100000D03*
%TO.P,D26,2,A*%
%TO.N,Net-(D26-A)*%
X107750000Y-91900000D03*
%TD*%
%TO.P,D9,1,K*%
%TO.N,row_3*%
X110250000Y-57100000D03*
%TO.P,D9,2,A*%
%TO.N,Net-(D9-A)*%
X110250000Y-54900000D03*
%TD*%
%TO.P,D1,1,K*%
%TO.N,row_5*%
X105250000Y-66100000D03*
%TO.P,D1,2,A*%
%TO.N,Net-(D1-A)*%
X105250000Y-63900000D03*
%TD*%
D22*
%TO.N,row_0*%
X110250000Y-95150000D03*
X115250000Y-95250000D03*
%TD*%
D23*
%TO.N,+3.3V*%
X79000000Y-81750000D02*
X73000000Y-75750000D01*
X79000000Y-88420000D02*
X79000000Y-81750000D01*
X81510000Y-90930000D02*
X79000000Y-88420000D01*
%TO.N,+5V*%
X79557000Y-64057000D02*
X72000000Y-56500000D01*
X81510000Y-85850000D02*
X79557000Y-83897000D01*
X79557000Y-83897000D02*
X79557000Y-64057000D01*
%TO.N,row_0*%
X82661000Y-79035860D02*
X82661000Y-66681000D01*
X98775140Y-95150000D02*
X82661000Y-79035860D01*
X110250000Y-95150000D02*
X98775140Y-95150000D01*
X82661000Y-66681000D02*
X81510000Y-65530000D01*
X116400000Y-94100000D02*
X115250000Y-95250000D01*
X117750000Y-94100000D02*
X116400000Y-94100000D01*
%TO.N,row_1*%
X79958000Y-78305760D02*
X79958000Y-54382000D01*
X81033240Y-79381000D02*
X79958000Y-78305760D01*
X81986760Y-79381000D02*
X81033240Y-79381000D01*
X98355760Y-95750000D02*
X81986760Y-79381000D01*
X113600000Y-95750000D02*
X98355760Y-95750000D01*
X115250000Y-94100000D02*
X113600000Y-95750000D01*
X79958000Y-54382000D02*
X81510000Y-52830000D01*
%TO.N,row_2*%
X82750000Y-54130000D02*
X81510000Y-55370000D01*
X82750000Y-52204240D02*
X82750000Y-54130000D01*
X81986760Y-51441000D02*
X82750000Y-52204240D01*
X81033240Y-51441000D02*
X81986760Y-51441000D01*
X80359000Y-50766760D02*
X81033240Y-51441000D01*
X80359000Y-49813240D02*
X80359000Y-50766760D01*
X81986760Y-49139000D02*
X81033240Y-49139000D01*
X104101760Y-46599000D02*
X84526760Y-46599000D01*
X108901000Y-51398240D02*
X104101760Y-46599000D01*
X111105918Y-57100000D02*
X108901000Y-54895082D01*
X108901000Y-54895082D02*
X108901000Y-51398240D01*
X81033240Y-49139000D02*
X80359000Y-49813240D01*
X84526760Y-46599000D02*
X81986760Y-49139000D01*
X112750000Y-57100000D02*
X111105918Y-57100000D01*
%TO.N,row_5*%
X80359000Y-66919000D02*
X81510000Y-68070000D01*
X80359000Y-57433240D02*
X80359000Y-66919000D01*
X81986760Y-56759000D02*
X81033240Y-56759000D01*
X84288760Y-59061000D02*
X81986760Y-56759000D01*
X96988760Y-59061000D02*
X84288760Y-59061000D01*
X104099000Y-66171240D02*
X96988760Y-59061000D01*
X104099000Y-92949000D02*
X104099000Y-66171240D01*
X105250000Y-94100000D02*
X104099000Y-92949000D01*
X81033240Y-56759000D02*
X80359000Y-57433240D01*
%TO.N,row_3*%
X109099000Y-94651000D02*
X109950000Y-93800000D01*
X81510000Y-57910000D02*
X92750000Y-69150000D01*
X92750000Y-69150000D02*
X92750000Y-88557760D01*
X98843240Y-94651000D02*
X109099000Y-94651000D01*
X109950000Y-93800000D02*
X108901000Y-92751000D01*
X92750000Y-88557760D02*
X98843240Y-94651000D01*
%TO.N,row_4*%
X106599000Y-51398240D02*
X106599000Y-55949000D01*
X106599000Y-55949000D02*
X107750000Y-57100000D01*
X104101760Y-48901000D02*
X106599000Y-51398240D01*
X82899000Y-48901000D02*
X104101760Y-48901000D01*
X81510000Y-50290000D02*
X82899000Y-48901000D01*
%TO.N,row_0*%
X116599000Y-92949000D02*
X117750000Y-94100000D01*
X117750000Y-84600000D02*
X116599000Y-85751000D01*
X116599000Y-85751000D02*
X116599000Y-92949000D01*
X116401000Y-83251000D02*
X117750000Y-84600000D01*
X116401000Y-76449000D02*
X116401000Y-83251000D01*
X117750000Y-75100000D02*
X116401000Y-76449000D01*
X116401000Y-73751000D02*
X117750000Y-75100000D01*
X116401000Y-66849000D02*
X116401000Y-73751000D01*
X117450000Y-65800000D02*
X116401000Y-66849000D01*
X117450000Y-65800000D02*
X117750000Y-66100000D01*
X116401000Y-58449000D02*
X116401000Y-64751000D01*
X116401000Y-64751000D02*
X117450000Y-65800000D01*
X117750000Y-57100000D02*
X116401000Y-58449000D01*
%TO.N,row_1*%
X113901000Y-58449000D02*
X115250000Y-57100000D01*
X113901000Y-64751000D02*
X113901000Y-58449000D01*
X115250000Y-66100000D02*
X113901000Y-64751000D01*
X114099000Y-67251000D02*
X115250000Y-66100000D01*
X114099000Y-73949000D02*
X114099000Y-67251000D01*
X115250000Y-75100000D02*
X114099000Y-73949000D01*
X114000000Y-76350000D02*
X115250000Y-75100000D01*
X114000000Y-83350000D02*
X114000000Y-76350000D01*
X115250000Y-84600000D02*
X114000000Y-83350000D01*
X114099000Y-85751000D02*
X115250000Y-84600000D01*
X114099000Y-92949000D02*
X114099000Y-85751000D01*
X115250000Y-94100000D02*
X114099000Y-92949000D01*
%TO.N,row_2*%
X111599000Y-92949000D02*
X112750000Y-94100000D01*
X111599000Y-85751000D02*
X111599000Y-92949000D01*
X112750000Y-84600000D02*
X111599000Y-85751000D01*
X111401000Y-83251000D02*
X112750000Y-84600000D01*
X111401000Y-76449000D02*
X111401000Y-83251000D01*
X112750000Y-75100000D02*
X111401000Y-76449000D01*
X111599000Y-73949000D02*
X112750000Y-75100000D01*
X111599000Y-67251000D02*
X111599000Y-73949000D01*
X112750000Y-66100000D02*
X111599000Y-67251000D01*
X111401000Y-64751000D02*
X112750000Y-66100000D01*
X111401000Y-58449000D02*
X111401000Y-64751000D01*
X112750000Y-57100000D02*
X111401000Y-58449000D01*
%TO.N,row_3*%
X108901000Y-58449000D02*
X110250000Y-57100000D01*
X108901000Y-64751000D02*
X108901000Y-58449000D01*
X110250000Y-66100000D02*
X108901000Y-64751000D01*
X109099000Y-67251000D02*
X110250000Y-66100000D01*
X109099000Y-73949000D02*
X109099000Y-67251000D01*
X110250000Y-75100000D02*
X109099000Y-73949000D01*
X109099000Y-76251000D02*
X110250000Y-75100000D01*
X109099000Y-83449000D02*
X109099000Y-76251000D01*
X110250000Y-84600000D02*
X109099000Y-83449000D01*
X108901000Y-85949000D02*
X110250000Y-84600000D01*
X108901000Y-92751000D02*
X108901000Y-85949000D01*
X110250000Y-94100000D02*
X109950000Y-93800000D01*
%TO.N,row_4*%
X106401000Y-64751000D02*
X107750000Y-66100000D01*
X106401000Y-58449000D02*
X106401000Y-64751000D01*
X107750000Y-57100000D02*
X106401000Y-58449000D01*
X106401000Y-73751000D02*
X107750000Y-75100000D01*
X106401000Y-67449000D02*
X106401000Y-73751000D01*
X107750000Y-66100000D02*
X106401000Y-67449000D01*
X106401000Y-83251000D02*
X107750000Y-84600000D01*
X106401000Y-76449000D02*
X106401000Y-83251000D01*
X107750000Y-75100000D02*
X106401000Y-76449000D01*
X106599000Y-85751000D02*
X107750000Y-84600000D01*
X106599000Y-92949000D02*
X106599000Y-85751000D01*
X107750000Y-94100000D02*
X106599000Y-92949000D01*
%TO.N,row_5*%
X104099000Y-85751000D02*
X104099000Y-92949000D01*
X105250000Y-84600000D02*
X104099000Y-85751000D01*
X104099000Y-76251000D02*
X104099000Y-83449000D01*
X104099000Y-83449000D02*
X105250000Y-84600000D01*
X105250000Y-75100000D02*
X104099000Y-76251000D01*
X104099000Y-73949000D02*
X105250000Y-75100000D01*
X104099000Y-67251000D02*
X104099000Y-73949000D01*
X105250000Y-66100000D02*
X104099000Y-67251000D01*
X104099000Y-64949000D02*
X105250000Y-66100000D01*
X104099000Y-58251000D02*
X104099000Y-64949000D01*
X105250000Y-57100000D02*
X104099000Y-58251000D01*
%TO.N,Net-(D26-A)*%
X107750000Y-91900000D02*
X107750000Y-89000000D01*
%TO.N,Net-(D27-A)*%
X110250000Y-91900000D02*
X110250000Y-89000000D01*
%TO.N,Net-(D28-A)*%
X112750000Y-91900000D02*
X112750000Y-89000000D01*
%TO.N,Net-(D29-A)*%
X115250000Y-91900000D02*
X115250000Y-89000000D01*
%TO.N,Net-(D30-A)*%
X117750000Y-91900000D02*
X117750000Y-89000000D01*
%TO.N,Net-(D24-A)*%
X117750000Y-82400000D02*
X117750000Y-79500000D01*
%TO.N,Net-(D23-A)*%
X115250000Y-82400000D02*
X115250000Y-79500000D01*
%TO.N,Net-(D22-A)*%
X112750000Y-82400000D02*
X112750000Y-79500000D01*
%TO.N,Net-(D21-A)*%
X110250000Y-82400000D02*
X110250000Y-79500000D01*
%TO.N,Net-(D20-A)*%
X107750000Y-82400000D02*
X107750000Y-79500000D01*
%TO.N,Net-(D18-A)*%
X117750000Y-72900000D02*
X117750000Y-70000000D01*
%TO.N,Net-(D17-A)*%
X115250000Y-72900000D02*
X115250000Y-70000000D01*
%TO.N,Net-(D16-A)*%
X112750000Y-72900000D02*
X112750000Y-70000000D01*
%TO.N,Net-(D15-A)*%
X110250000Y-72900000D02*
X110250000Y-70000000D01*
%TO.N,Net-(D14-A)*%
X107750000Y-72900000D02*
X107750000Y-70000000D01*
%TO.N,Net-(D6-A)*%
X117750000Y-63900000D02*
X117750000Y-61000000D01*
%TO.N,Net-(D5-A)*%
X115250000Y-63900000D02*
X115250000Y-61000000D01*
%TO.N,Net-(D4-A)*%
X112750000Y-63900000D02*
X112750000Y-61000000D01*
%TO.N,Net-(D25-A)*%
X105250000Y-89000000D02*
X105250000Y-91900000D01*
%TO.N,Net-(D19-A)*%
X105250000Y-79500000D02*
X105250000Y-82400000D01*
%TO.N,Net-(D13-A)*%
X105250000Y-70000000D02*
X105250000Y-72900000D01*
%TO.N,Net-(D3-A)*%
X110250000Y-63900000D02*
X110250000Y-61000000D01*
%TO.N,Net-(D2-A)*%
X107750000Y-63900000D02*
X107750000Y-61000000D01*
%TO.N,Net-(D1-A)*%
X105250000Y-63900000D02*
X105250000Y-61000000D01*
%TO.N,Net-(D12-A)*%
X117750000Y-54900000D02*
X117750000Y-52000000D01*
%TO.N,Net-(D11-A)*%
X115250000Y-54900000D02*
X115250000Y-52000000D01*
%TO.N,Net-(D10-A)*%
X112750000Y-54900000D02*
X112750000Y-52000000D01*
%TO.N,Net-(D9-A)*%
X110250000Y-54900000D02*
X110250000Y-52000000D01*
%TO.N,Net-(D8-A)*%
X107750000Y-54900000D02*
X107750000Y-52000000D01*
%TO.N,Net-(D7-A)*%
X105250000Y-54900000D02*
X105250000Y-52000000D01*
%TD*%
%TA.AperFunction,Conductor*%
%TO.N,GND*%
G36*
X79805703Y-84995384D02*
G01*
X79812181Y-85001416D01*
X80176241Y-85365476D01*
X80209726Y-85426799D01*
X80206492Y-85491473D01*
X80192753Y-85533757D01*
X80159500Y-85743713D01*
X80159500Y-85956286D01*
X80172451Y-86038059D01*
X80192754Y-86166243D01*
X80220474Y-86251557D01*
X80258444Y-86368414D01*
X80354951Y-86557820D01*
X80479890Y-86729786D01*
X80630213Y-86880109D01*
X80802179Y-87005048D01*
X80802181Y-87005049D01*
X80802184Y-87005051D01*
X80811493Y-87009794D01*
X80862290Y-87057766D01*
X80879087Y-87125587D01*
X80856552Y-87191722D01*
X80811505Y-87230760D01*
X80802446Y-87235376D01*
X80802440Y-87235380D01*
X80748282Y-87274727D01*
X80748282Y-87274728D01*
X81380591Y-87907037D01*
X81317007Y-87924075D01*
X81202993Y-87989901D01*
X81109901Y-88082993D01*
X81044075Y-88197007D01*
X81027037Y-88260591D01*
X80394728Y-87628282D01*
X80394727Y-87628282D01*
X80355380Y-87682439D01*
X80258904Y-87871782D01*
X80193242Y-88073869D01*
X80193242Y-88073872D01*
X80160000Y-88283753D01*
X80160000Y-88431403D01*
X80140315Y-88498442D01*
X80087511Y-88544197D01*
X80018353Y-88554141D01*
X79954797Y-88525116D01*
X79948319Y-88519084D01*
X79636819Y-88207584D01*
X79603334Y-88146261D01*
X79600500Y-88119903D01*
X79600500Y-85089097D01*
X79620185Y-85022058D01*
X79672989Y-84976303D01*
X79742147Y-84966359D01*
X79805703Y-84995384D01*
G37*
%TD.AperFunction*%
%TA.AperFunction,Conductor*%
G36*
X121942539Y-38020185D02*
G01*
X121988294Y-38072989D01*
X121999500Y-38124500D01*
X121999500Y-96875500D01*
X121979815Y-96942539D01*
X121927011Y-96988294D01*
X121875500Y-96999500D01*
X77708167Y-96999500D01*
X77641128Y-96979815D01*
X77633767Y-96974700D01*
X77501500Y-96875500D01*
X75200167Y-95149500D01*
X69291989Y-90718366D01*
X69166218Y-90624038D01*
X72399500Y-90624038D01*
X72399500Y-90875961D01*
X72438910Y-91124785D01*
X72516760Y-91364383D01*
X72631132Y-91588848D01*
X72779201Y-91792649D01*
X72779205Y-91792654D01*
X72957345Y-91970794D01*
X72957350Y-91970798D01*
X73114603Y-92085048D01*
X73161155Y-92118870D01*
X73293969Y-92186542D01*
X73385616Y-92233239D01*
X73385618Y-92233239D01*
X73385621Y-92233241D01*
X73625215Y-92311090D01*
X73874038Y-92350500D01*
X73874039Y-92350500D01*
X74125961Y-92350500D01*
X74125962Y-92350500D01*
X74374785Y-92311090D01*
X74614379Y-92233241D01*
X74838845Y-92118870D01*
X75042656Y-91970793D01*
X75220793Y-91792656D01*
X75368870Y-91588845D01*
X75483241Y-91364379D01*
X75561090Y-91124785D01*
X75600500Y-90875962D01*
X75600500Y-90624038D01*
X75561090Y-90375215D01*
X75483241Y-90135621D01*
X75483239Y-90135618D01*
X75483239Y-90135616D01*
X75441747Y-90054184D01*
X75368870Y-89911155D01*
X75344633Y-89877795D01*
X75220798Y-89707350D01*
X75220794Y-89707345D01*
X75042654Y-89529205D01*
X75042649Y-89529201D01*
X74838848Y-89381132D01*
X74838847Y-89381131D01*
X74838845Y-89381130D01*
X74768747Y-89345413D01*
X74614383Y-89266760D01*
X74374785Y-89188910D01*
X74139959Y-89151717D01*
X74125962Y-89149500D01*
X73874038Y-89149500D01*
X73860041Y-89151717D01*
X73625214Y-89188910D01*
X73385616Y-89266760D01*
X73161151Y-89381132D01*
X72957350Y-89529201D01*
X72957345Y-89529205D01*
X72779205Y-89707345D01*
X72779201Y-89707350D01*
X72631132Y-89911151D01*
X72516760Y-90135616D01*
X72438910Y-90375214D01*
X72399500Y-90624038D01*
X69166218Y-90624038D01*
X68050100Y-89786949D01*
X68008279Y-89730978D01*
X68000500Y-89687749D01*
X68000500Y-81849983D01*
X71499500Y-81849983D01*
X71499500Y-83150001D01*
X71499501Y-83150018D01*
X71510000Y-83252796D01*
X71510001Y-83252799D01*
X71548818Y-83369939D01*
X71565186Y-83419334D01*
X71632248Y-83528060D01*
X71657289Y-83568657D01*
X71781344Y-83692712D01*
X71936120Y-83788178D01*
X71982845Y-83840126D01*
X71994068Y-83909088D01*
X71966224Y-83973171D01*
X71958706Y-83981398D01*
X71819889Y-84120215D01*
X71694951Y-84292179D01*
X71598444Y-84481585D01*
X71532753Y-84683760D01*
X71499500Y-84893713D01*
X71499500Y-85106287D01*
X71500313Y-85111420D01*
X71530754Y-85303619D01*
X71532754Y-85316243D01*
X71582219Y-85468481D01*
X71598444Y-85518414D01*
X71694951Y-85707820D01*
X71819890Y-85879786D01*
X71970213Y-86030109D01*
X72142179Y-86155048D01*
X72142181Y-86155049D01*
X72142184Y-86155051D01*
X72331588Y-86251557D01*
X72533757Y-86317246D01*
X72743713Y-86350500D01*
X72743714Y-86350500D01*
X73256286Y-86350500D01*
X73256287Y-86350500D01*
X73466243Y-86317246D01*
X73668412Y-86251557D01*
X73857816Y-86155051D01*
X74000899Y-86051096D01*
X74029786Y-86030109D01*
X74029788Y-86030106D01*
X74029792Y-86030104D01*
X74180104Y-85879792D01*
X74180106Y-85879788D01*
X74180109Y-85879786D01*
X74305048Y-85707820D01*
X74305047Y-85707820D01*
X74305051Y-85707816D01*
X74401557Y-85518412D01*
X74467246Y-85316243D01*
X74500500Y-85106287D01*
X74500500Y-84893713D01*
X74467246Y-84683757D01*
X74401557Y-84481588D01*
X74305051Y-84292184D01*
X74305049Y-84292181D01*
X74305048Y-84292179D01*
X74180109Y-84120213D01*
X74041294Y-83981398D01*
X74007809Y-83920075D01*
X74012793Y-83850383D01*
X74054665Y-83794450D01*
X74063879Y-83788178D01*
X74069331Y-83784814D01*
X74069334Y-83784814D01*
X74218656Y-83692712D01*
X74342712Y-83568656D01*
X74434814Y-83419334D01*
X74489999Y-83252797D01*
X74500500Y-83150009D01*
X74500499Y-81849992D01*
X74489999Y-81747203D01*
X74434814Y-81580666D01*
X74342712Y-81431344D01*
X74218656Y-81307288D01*
X74125888Y-81250069D01*
X74069336Y-81215187D01*
X74069331Y-81215185D01*
X74051568Y-81209299D01*
X73902797Y-81160001D01*
X73902795Y-81160000D01*
X73800010Y-81149500D01*
X72199998Y-81149500D01*
X72199981Y-81149501D01*
X72097203Y-81160000D01*
X72097200Y-81160001D01*
X71930668Y-81215185D01*
X71930663Y-81215187D01*
X71781342Y-81307289D01*
X71657289Y-81431342D01*
X71565187Y-81580663D01*
X71565186Y-81580666D01*
X71510001Y-81747203D01*
X71510001Y-81747204D01*
X71510000Y-81747204D01*
X71499500Y-81849983D01*
X68000500Y-81849983D01*
X68000500Y-56393713D01*
X70524500Y-56393713D01*
X70524500Y-56606287D01*
X70557754Y-56816243D01*
X70617871Y-57001264D01*
X70623444Y-57018414D01*
X70719951Y-57207820D01*
X70844890Y-57379786D01*
X70995209Y-57530105D01*
X70995214Y-57530109D01*
X71159793Y-57649682D01*
X71202459Y-57705011D01*
X71208438Y-57774625D01*
X71175833Y-57836420D01*
X71159793Y-57850318D01*
X70995214Y-57969890D01*
X70995209Y-57969894D01*
X70844890Y-58120213D01*
X70719951Y-58292179D01*
X70623444Y-58481585D01*
X70557753Y-58683760D01*
X70537954Y-58808767D01*
X70524500Y-58893713D01*
X70524500Y-59106287D01*
X70557754Y-59316243D01*
X70605502Y-59463197D01*
X70623444Y-59518414D01*
X70719951Y-59707820D01*
X70844890Y-59879786D01*
X70984068Y-60018964D01*
X71017553Y-60080287D01*
X71012569Y-60149979D01*
X70970697Y-60205912D01*
X70961484Y-60212183D01*
X70806659Y-60307680D01*
X70806655Y-60307683D01*
X70682684Y-60431654D01*
X70590643Y-60580875D01*
X70590641Y-60580880D01*
X70535494Y-60747302D01*
X70535493Y-60747309D01*
X70525000Y-60850013D01*
X70525000Y-61250000D01*
X71595854Y-61250000D01*
X71557370Y-61316657D01*
X71525000Y-61437465D01*
X71525000Y-61562535D01*
X71557370Y-61683343D01*
X71595854Y-61750000D01*
X70525001Y-61750000D01*
X70525001Y-62149986D01*
X70535494Y-62252697D01*
X70590641Y-62419119D01*
X70590643Y-62419124D01*
X70682684Y-62568345D01*
X70806654Y-62692315D01*
X70955875Y-62784356D01*
X70955880Y-62784358D01*
X71122302Y-62839505D01*
X71122309Y-62839506D01*
X71225019Y-62849999D01*
X71749999Y-62849999D01*
X71750000Y-62849998D01*
X71750000Y-61904145D01*
X71816657Y-61942630D01*
X71937465Y-61975000D01*
X72062535Y-61975000D01*
X72183343Y-61942630D01*
X72250000Y-61904145D01*
X72250000Y-62849999D01*
X72774972Y-62849999D01*
X72774986Y-62849998D01*
X72877697Y-62839505D01*
X73044119Y-62784358D01*
X73044124Y-62784356D01*
X73193345Y-62692315D01*
X73317315Y-62568345D01*
X73409356Y-62419124D01*
X73409358Y-62419119D01*
X73464505Y-62252697D01*
X73464506Y-62252690D01*
X73474999Y-62149986D01*
X73475000Y-62149973D01*
X73475000Y-61750000D01*
X72404146Y-61750000D01*
X72442630Y-61683343D01*
X72475000Y-61562535D01*
X72475000Y-61437465D01*
X72442630Y-61316657D01*
X72404146Y-61250000D01*
X73474999Y-61250000D01*
X73474999Y-60850028D01*
X73474998Y-60850013D01*
X73464505Y-60747302D01*
X73409358Y-60580880D01*
X73409356Y-60580875D01*
X73317315Y-60431654D01*
X73193345Y-60307684D01*
X73038515Y-60212184D01*
X72991791Y-60160236D01*
X72980568Y-60091273D01*
X73008412Y-60027191D01*
X73015909Y-60018986D01*
X73155104Y-59879792D01*
X73210790Y-59803147D01*
X73280048Y-59707820D01*
X73280047Y-59707820D01*
X73280051Y-59707816D01*
X73376557Y-59518412D01*
X73442246Y-59316243D01*
X73475500Y-59106287D01*
X73475500Y-59106281D01*
X73475925Y-59103598D01*
X73505854Y-59040463D01*
X73565165Y-59003531D01*
X73635028Y-59004529D01*
X73686079Y-59035314D01*
X78920181Y-64269416D01*
X78953666Y-64330739D01*
X78956500Y-64357097D01*
X78956500Y-80557903D01*
X78936815Y-80624942D01*
X78884011Y-80670697D01*
X78814853Y-80680641D01*
X78751297Y-80651616D01*
X78744819Y-80645584D01*
X74428102Y-76328867D01*
X74394617Y-76267544D01*
X74397851Y-76202874D01*
X74442246Y-76066243D01*
X74475500Y-75856287D01*
X74475500Y-75643713D01*
X74442246Y-75433757D01*
X74376557Y-75231588D01*
X74280051Y-75042184D01*
X74280049Y-75042181D01*
X74280048Y-75042179D01*
X74155109Y-74870213D01*
X74004792Y-74719896D01*
X74004784Y-74719890D01*
X73840204Y-74600316D01*
X73797540Y-74544989D01*
X73791561Y-74475376D01*
X73824166Y-74413580D01*
X73840199Y-74399686D01*
X74004792Y-74280104D01*
X74155104Y-74129792D01*
X74155106Y-74129788D01*
X74155109Y-74129786D01*
X74280048Y-73957820D01*
X74280047Y-73957820D01*
X74280051Y-73957816D01*
X74376557Y-73768412D01*
X74442246Y-73566243D01*
X74475500Y-73356287D01*
X74475500Y-73143713D01*
X74442246Y-72933757D01*
X74376557Y-72731588D01*
X74280051Y-72542184D01*
X74280049Y-72542181D01*
X74280048Y-72542179D01*
X74155109Y-72370213D01*
X74004792Y-72219896D01*
X73965851Y-72191604D01*
X73840204Y-72100316D01*
X73797540Y-72044989D01*
X73791561Y-71975376D01*
X73824166Y-71913580D01*
X73840199Y-71899686D01*
X74004792Y-71780104D01*
X74155104Y-71629792D01*
X74155106Y-71629788D01*
X74155109Y-71629786D01*
X74267204Y-71475499D01*
X74280051Y-71457816D01*
X74376557Y-71268412D01*
X74442246Y-71066243D01*
X74475500Y-70856287D01*
X74475500Y-70643713D01*
X74442246Y-70433757D01*
X74376557Y-70231588D01*
X74280051Y-70042184D01*
X74280049Y-70042181D01*
X74280048Y-70042179D01*
X74155109Y-69870213D01*
X74015931Y-69731035D01*
X73982446Y-69669712D01*
X73987430Y-69600020D01*
X74029302Y-69544087D01*
X74038516Y-69537815D01*
X74193343Y-69442317D01*
X74317315Y-69318345D01*
X74409356Y-69169124D01*
X74409358Y-69169119D01*
X74464505Y-69002697D01*
X74464506Y-69002690D01*
X74474999Y-68899986D01*
X74475000Y-68899973D01*
X74475000Y-68500000D01*
X73404146Y-68500000D01*
X73442630Y-68433343D01*
X73475000Y-68312535D01*
X73475000Y-68187465D01*
X73442630Y-68066657D01*
X73404146Y-68000000D01*
X74474999Y-68000000D01*
X74474999Y-67600028D01*
X74474998Y-67600013D01*
X74464505Y-67497302D01*
X74409358Y-67330880D01*
X74409356Y-67330875D01*
X74317315Y-67181654D01*
X74193345Y-67057684D01*
X74044124Y-66965643D01*
X74044119Y-66965641D01*
X73877697Y-66910494D01*
X73877690Y-66910493D01*
X73774986Y-66900000D01*
X73250000Y-66900000D01*
X73250000Y-67845854D01*
X73183343Y-67807370D01*
X73062535Y-67775000D01*
X72937465Y-67775000D01*
X72816657Y-67807370D01*
X72750000Y-67845854D01*
X72750000Y-66900000D01*
X72225028Y-66900000D01*
X72225012Y-66900001D01*
X72122302Y-66910494D01*
X71955880Y-66965641D01*
X71955875Y-66965643D01*
X71806654Y-67057684D01*
X71682684Y-67181654D01*
X71590643Y-67330875D01*
X71590641Y-67330880D01*
X71535494Y-67497302D01*
X71535493Y-67497309D01*
X71525000Y-67600013D01*
X71525000Y-68000000D01*
X72595854Y-68000000D01*
X72557370Y-68066657D01*
X72525000Y-68187465D01*
X72525000Y-68312535D01*
X72557370Y-68433343D01*
X72595854Y-68500000D01*
X71525001Y-68500000D01*
X71525001Y-68899986D01*
X71535494Y-69002697D01*
X71590641Y-69169119D01*
X71590643Y-69169124D01*
X71682684Y-69318345D01*
X71806654Y-69442315D01*
X71961484Y-69537815D01*
X72008208Y-69589763D01*
X72019431Y-69658726D01*
X71991587Y-69722808D01*
X71984069Y-69731035D01*
X71844889Y-69870215D01*
X71719951Y-70042179D01*
X71623444Y-70231585D01*
X71557753Y-70433760D01*
X71546674Y-70503713D01*
X71524500Y-70643713D01*
X71524500Y-70856287D01*
X71557754Y-71066243D01*
X71617620Y-71250492D01*
X71623444Y-71268414D01*
X71719951Y-71457820D01*
X71844890Y-71629786D01*
X71995209Y-71780105D01*
X71995214Y-71780109D01*
X72159793Y-71899682D01*
X72202459Y-71955011D01*
X72208438Y-72024625D01*
X72175833Y-72086420D01*
X72159793Y-72100318D01*
X71995214Y-72219890D01*
X71995209Y-72219894D01*
X71844890Y-72370213D01*
X71719951Y-72542179D01*
X71623444Y-72731585D01*
X71557753Y-72933760D01*
X71533298Y-73088163D01*
X71524500Y-73143713D01*
X71524500Y-73356287D01*
X71557754Y-73566243D01*
X71606612Y-73716613D01*
X71623444Y-73768414D01*
X71719951Y-73957820D01*
X71844890Y-74129786D01*
X71995209Y-74280105D01*
X71995214Y-74280109D01*
X72159793Y-74399682D01*
X72202459Y-74455011D01*
X72208438Y-74524625D01*
X72175833Y-74586420D01*
X72159793Y-74600318D01*
X71995214Y-74719890D01*
X71995209Y-74719894D01*
X71844890Y-74870213D01*
X71719951Y-75042179D01*
X71623444Y-75231585D01*
X71557753Y-75433760D01*
X71551160Y-75475390D01*
X71524500Y-75643713D01*
X71524500Y-75856287D01*
X71529336Y-75886818D01*
X71542269Y-75968479D01*
X71557754Y-76066243D01*
X71603948Y-76208414D01*
X71623444Y-76268414D01*
X71719951Y-76457820D01*
X71844890Y-76629786D01*
X71995213Y-76780109D01*
X72167179Y-76905048D01*
X72167181Y-76905049D01*
X72167184Y-76905051D01*
X72356588Y-77001557D01*
X72558757Y-77067246D01*
X72768713Y-77100500D01*
X72768714Y-77100500D01*
X73231285Y-77100500D01*
X73231287Y-77100500D01*
X73401949Y-77073469D01*
X73471240Y-77082423D01*
X73509026Y-77108261D01*
X78363181Y-81962416D01*
X78396666Y-82023739D01*
X78399500Y-82050097D01*
X78399500Y-88333330D01*
X78399499Y-88333348D01*
X78399499Y-88499054D01*
X78399498Y-88499054D01*
X78399499Y-88499057D01*
X78440423Y-88651785D01*
X78440424Y-88651787D01*
X78440423Y-88651787D01*
X78457770Y-88681831D01*
X78457772Y-88681833D01*
X78457773Y-88681835D01*
X78471865Y-88706243D01*
X78519479Y-88788715D01*
X78638349Y-88907585D01*
X78638355Y-88907590D01*
X80176241Y-90445476D01*
X80209726Y-90506799D01*
X80206492Y-90571473D01*
X80192753Y-90613757D01*
X80176185Y-90718366D01*
X80159500Y-90823713D01*
X80159500Y-91036287D01*
X80192754Y-91246243D01*
X80239002Y-91388580D01*
X80258444Y-91448414D01*
X80354951Y-91637820D01*
X80479890Y-91809786D01*
X80630213Y-91960109D01*
X80802179Y-92085048D01*
X80802181Y-92085049D01*
X80802184Y-92085051D01*
X80991588Y-92181557D01*
X81193757Y-92247246D01*
X81403713Y-92280500D01*
X81403714Y-92280500D01*
X81616286Y-92280500D01*
X81616287Y-92280500D01*
X81826243Y-92247246D01*
X82028412Y-92181557D01*
X82217816Y-92085051D01*
X82239789Y-92069086D01*
X82389786Y-91960109D01*
X82389788Y-91960106D01*
X82389792Y-91960104D01*
X82540104Y-91809792D01*
X82540106Y-91809788D01*
X82540109Y-91809786D01*
X82665048Y-91637820D01*
X82665047Y-91637820D01*
X82665051Y-91637816D01*
X82761557Y-91448412D01*
X82827246Y-91246243D01*
X82860500Y-91036287D01*
X82860500Y-90823713D01*
X82827246Y-90613757D01*
X82761557Y-90411588D01*
X82665051Y-90222184D01*
X82665049Y-90222181D01*
X82665048Y-90222179D01*
X82540109Y-90050213D01*
X82389786Y-89899890D01*
X82217817Y-89774949D01*
X82208504Y-89770204D01*
X82157707Y-89722230D01*
X82140912Y-89654409D01*
X82163449Y-89588274D01*
X82208507Y-89549232D01*
X82217555Y-89544622D01*
X82271716Y-89505270D01*
X82271717Y-89505270D01*
X81639408Y-88872962D01*
X81702993Y-88855925D01*
X81817007Y-88790099D01*
X81910099Y-88697007D01*
X81975925Y-88582993D01*
X81992962Y-88519409D01*
X82625270Y-89151717D01*
X82625270Y-89151716D01*
X82664622Y-89097554D01*
X82761095Y-88908217D01*
X82826757Y-88706130D01*
X82826757Y-88706127D01*
X82860000Y-88496246D01*
X82860000Y-88283753D01*
X82826757Y-88073872D01*
X82826757Y-88073869D01*
X82761095Y-87871782D01*
X82664624Y-87682449D01*
X82625270Y-87628282D01*
X82625269Y-87628282D01*
X81992962Y-88260590D01*
X81975925Y-88197007D01*
X81910099Y-88082993D01*
X81817007Y-87989901D01*
X81702993Y-87924075D01*
X81639409Y-87907037D01*
X82271716Y-87274728D01*
X82217547Y-87235373D01*
X82217547Y-87235372D01*
X82208500Y-87230763D01*
X82157706Y-87182788D01*
X82140912Y-87114966D01*
X82163451Y-87048832D01*
X82208508Y-87009793D01*
X82217816Y-87005051D01*
X82297007Y-86947515D01*
X82389786Y-86880109D01*
X82389788Y-86880106D01*
X82389792Y-86880104D01*
X82540104Y-86729792D01*
X82540106Y-86729788D01*
X82540109Y-86729786D01*
X82665048Y-86557820D01*
X82665047Y-86557820D01*
X82665051Y-86557816D01*
X82761557Y-86368412D01*
X82827246Y-86166243D01*
X82860500Y-85956287D01*
X82860500Y-85743713D01*
X82827246Y-85533757D01*
X82761557Y-85331588D01*
X82665051Y-85142184D01*
X82665049Y-85142181D01*
X82665048Y-85142179D01*
X82540109Y-84970213D01*
X82389786Y-84819890D01*
X82217820Y-84694951D01*
X82217115Y-84694591D01*
X82209054Y-84690485D01*
X82158259Y-84642512D01*
X82141463Y-84574692D01*
X82163999Y-84508556D01*
X82209054Y-84469515D01*
X82217816Y-84465051D01*
X82339872Y-84376373D01*
X82389786Y-84340109D01*
X82389788Y-84340106D01*
X82389792Y-84340104D01*
X82540104Y-84189792D01*
X82540106Y-84189788D01*
X82540109Y-84189786D01*
X82665048Y-84017820D01*
X82665047Y-84017820D01*
X82665051Y-84017816D01*
X82761557Y-83828412D01*
X82827246Y-83626243D01*
X82860500Y-83416287D01*
X82860500Y-83203713D01*
X82827246Y-82993757D01*
X82761557Y-82791588D01*
X82665051Y-82602184D01*
X82665049Y-82602181D01*
X82665048Y-82602179D01*
X82540109Y-82430213D01*
X82389786Y-82279890D01*
X82217820Y-82154951D01*
X82217115Y-82154591D01*
X82209054Y-82150485D01*
X82158259Y-82102512D01*
X82141463Y-82034692D01*
X82163999Y-81968556D01*
X82209054Y-81929515D01*
X82217816Y-81925051D01*
X82239789Y-81909086D01*
X82389786Y-81800109D01*
X82389788Y-81800106D01*
X82389792Y-81800104D01*
X82540104Y-81649792D01*
X82540106Y-81649788D01*
X82540109Y-81649786D01*
X82665048Y-81477820D01*
X82665047Y-81477820D01*
X82665051Y-81477816D01*
X82761557Y-81288412D01*
X82768522Y-81266973D01*
X82807956Y-81209299D01*
X82872314Y-81182099D01*
X82941161Y-81194011D01*
X82974133Y-81217608D01*
X97987044Y-96230520D01*
X98123975Y-96309577D01*
X98276703Y-96350501D01*
X98276706Y-96350501D01*
X98442414Y-96350501D01*
X98442430Y-96350500D01*
X113513331Y-96350500D01*
X113513347Y-96350501D01*
X113520943Y-96350501D01*
X113679054Y-96350501D01*
X113679057Y-96350501D01*
X113831785Y-96309577D01*
X113881904Y-96280639D01*
X113968716Y-96230520D01*
X114080520Y-96118716D01*
X114080520Y-96118714D01*
X114090728Y-96108507D01*
X114090730Y-96108504D01*
X114446158Y-95753075D01*
X114507479Y-95719592D01*
X114577171Y-95724576D01*
X114622753Y-95757131D01*
X114623903Y-95755982D01*
X114739707Y-95871786D01*
X114739711Y-95871789D01*
X114870814Y-95959390D01*
X114870827Y-95959397D01*
X115016498Y-96019735D01*
X115016503Y-96019737D01*
X115171153Y-96050499D01*
X115171156Y-96050500D01*
X115171158Y-96050500D01*
X115328844Y-96050500D01*
X115328845Y-96050499D01*
X115483497Y-96019737D01*
X115629179Y-95959394D01*
X115760289Y-95871789D01*
X115871789Y-95760289D01*
X115959394Y-95629179D01*
X116019737Y-95483497D01*
X116050500Y-95328842D01*
X116050638Y-95328150D01*
X116083023Y-95266239D01*
X116084515Y-95264719D01*
X116612417Y-94736819D01*
X116673740Y-94703334D01*
X116700098Y-94700500D01*
X117166899Y-94700500D01*
X117231674Y-94719520D01*
X117231865Y-94719199D01*
X117233132Y-94719948D01*
X117233938Y-94720185D01*
X117236014Y-94721653D01*
X117238583Y-94723172D01*
X117374610Y-94803618D01*
X117526373Y-94847709D01*
X117561837Y-94850500D01*
X117938162Y-94850499D01*
X117973627Y-94847709D01*
X118125390Y-94803618D01*
X118261420Y-94723170D01*
X118373170Y-94611420D01*
X118453618Y-94475390D01*
X118497709Y-94323627D01*
X118500500Y-94288163D01*
X118500499Y-93911838D01*
X118497709Y-93876373D01*
X118453618Y-93724610D01*
X118373170Y-93588580D01*
X118373168Y-93588578D01*
X118373165Y-93588574D01*
X118261425Y-93476834D01*
X118261416Y-93476827D01*
X118125390Y-93396382D01*
X118125385Y-93396380D01*
X117973633Y-93352292D01*
X117973620Y-93352290D01*
X117938170Y-93349500D01*
X117938163Y-93349500D01*
X117900097Y-93349500D01*
X117833058Y-93329815D01*
X117812416Y-93313181D01*
X117333064Y-92833829D01*
X117299579Y-92772506D01*
X117304563Y-92702814D01*
X117346435Y-92646881D01*
X117411899Y-92622464D01*
X117455339Y-92627071D01*
X117526373Y-92647709D01*
X117561837Y-92650500D01*
X117938162Y-92650499D01*
X117973627Y-92647709D01*
X118125390Y-92603618D01*
X118261420Y-92523170D01*
X118373170Y-92411420D01*
X118453618Y-92275390D01*
X118497709Y-92123627D01*
X118500500Y-92088163D01*
X118500499Y-91711838D01*
X118497709Y-91676373D01*
X118453618Y-91524610D01*
X118373170Y-91388580D01*
X118369199Y-91381865D01*
X118371623Y-91380430D01*
X118350985Y-91327858D01*
X118350500Y-91316899D01*
X118350500Y-90592534D01*
X118370185Y-90525495D01*
X118422989Y-90479740D01*
X118461897Y-90469176D01*
X118502797Y-90464999D01*
X118669334Y-90409814D01*
X118818656Y-90317712D01*
X118942712Y-90193656D01*
X119034814Y-90044334D01*
X119089999Y-89877797D01*
X119100500Y-89775009D01*
X119100499Y-88224992D01*
X119089999Y-88122203D01*
X119034814Y-87955666D01*
X118942712Y-87806344D01*
X118818656Y-87682288D01*
X118723253Y-87623443D01*
X118669336Y-87590187D01*
X118669331Y-87590185D01*
X118626496Y-87575991D01*
X118502797Y-87535001D01*
X118502795Y-87535000D01*
X118400016Y-87524500D01*
X118400009Y-87524500D01*
X117323500Y-87524500D01*
X117256461Y-87504815D01*
X117210706Y-87452011D01*
X117199500Y-87400500D01*
X117199500Y-86051096D01*
X117219185Y-85984057D01*
X117235815Y-85963419D01*
X117812416Y-85386817D01*
X117873739Y-85353333D01*
X117900097Y-85350499D01*
X117938150Y-85350499D01*
X117938162Y-85350499D01*
X117973627Y-85347709D01*
X118125390Y-85303618D01*
X118261420Y-85223170D01*
X118373170Y-85111420D01*
X118453618Y-84975390D01*
X118497709Y-84823627D01*
X118500500Y-84788163D01*
X118500499Y-84411838D01*
X118497709Y-84376373D01*
X118453618Y-84224610D01*
X118373170Y-84088580D01*
X118373168Y-84088578D01*
X118373165Y-84088574D01*
X118261425Y-83976834D01*
X118261416Y-83976827D01*
X118125390Y-83896382D01*
X118125385Y-83896380D01*
X117973633Y-83852292D01*
X117973620Y-83852290D01*
X117938170Y-83849500D01*
X117938163Y-83849500D01*
X117900097Y-83849500D01*
X117833058Y-83829815D01*
X117812416Y-83813181D01*
X117333064Y-83333829D01*
X117299579Y-83272506D01*
X117304563Y-83202814D01*
X117346435Y-83146881D01*
X117411899Y-83122464D01*
X117455339Y-83127071D01*
X117526373Y-83147709D01*
X117561837Y-83150500D01*
X117938162Y-83150499D01*
X117973627Y-83147709D01*
X118125390Y-83103618D01*
X118261420Y-83023170D01*
X118373170Y-82911420D01*
X118453618Y-82775390D01*
X118497709Y-82623627D01*
X118500500Y-82588163D01*
X118500499Y-82211838D01*
X118497709Y-82176373D01*
X118453618Y-82024610D01*
X118373170Y-81888580D01*
X118369199Y-81881865D01*
X118371623Y-81880430D01*
X118350985Y-81827858D01*
X118350500Y-81816899D01*
X118350500Y-81092534D01*
X118370185Y-81025495D01*
X118422989Y-80979740D01*
X118461897Y-80969176D01*
X118502797Y-80964999D01*
X118669334Y-80909814D01*
X118818656Y-80817712D01*
X118942712Y-80693656D01*
X119034814Y-80544334D01*
X119089999Y-80377797D01*
X119100500Y-80275009D01*
X119100499Y-78724992D01*
X119089999Y-78622203D01*
X119034814Y-78455666D01*
X118942712Y-78306344D01*
X118818656Y-78182288D01*
X118710036Y-78115291D01*
X118669336Y-78090187D01*
X118669331Y-78090185D01*
X118641999Y-78081128D01*
X118502797Y-78035001D01*
X118502795Y-78035000D01*
X118400016Y-78024500D01*
X117125500Y-78024500D01*
X117058461Y-78004815D01*
X117012706Y-77952011D01*
X117001500Y-77900500D01*
X117001500Y-76749096D01*
X117021185Y-76682057D01*
X117037815Y-76661419D01*
X117812416Y-75886817D01*
X117873739Y-75853333D01*
X117900097Y-75850499D01*
X117938150Y-75850499D01*
X117938162Y-75850499D01*
X117973627Y-75847709D01*
X118125390Y-75803618D01*
X118261420Y-75723170D01*
X118373170Y-75611420D01*
X118453618Y-75475390D01*
X118497709Y-75323627D01*
X118500500Y-75288163D01*
X118500499Y-74911838D01*
X118497709Y-74876373D01*
X118453618Y-74724610D01*
X118401804Y-74636998D01*
X118373172Y-74588583D01*
X118373165Y-74588574D01*
X118261425Y-74476834D01*
X118261416Y-74476827D01*
X118125390Y-74396382D01*
X118125385Y-74396380D01*
X117973633Y-74352292D01*
X117973620Y-74352290D01*
X117938170Y-74349500D01*
X117938163Y-74349500D01*
X117900097Y-74349500D01*
X117833058Y-74329815D01*
X117812416Y-74313181D01*
X117333064Y-73833829D01*
X117299579Y-73772506D01*
X117304563Y-73702814D01*
X117346435Y-73646881D01*
X117411899Y-73622464D01*
X117455339Y-73627071D01*
X117526373Y-73647709D01*
X117561837Y-73650500D01*
X117938162Y-73650499D01*
X117973627Y-73647709D01*
X118125390Y-73603618D01*
X118261420Y-73523170D01*
X118373170Y-73411420D01*
X118453618Y-73275390D01*
X118497709Y-73123627D01*
X118500500Y-73088163D01*
X118500499Y-72711838D01*
X118497709Y-72676373D01*
X118453618Y-72524610D01*
X118373170Y-72388580D01*
X118369199Y-72381865D01*
X118371623Y-72380430D01*
X118350985Y-72327858D01*
X118350500Y-72316899D01*
X118350500Y-71592534D01*
X118370185Y-71525495D01*
X118422989Y-71479740D01*
X118461897Y-71469176D01*
X118502797Y-71464999D01*
X118669334Y-71409814D01*
X118818656Y-71317712D01*
X118942712Y-71193656D01*
X119034814Y-71044334D01*
X119089999Y-70877797D01*
X119100500Y-70775009D01*
X119100499Y-69224992D01*
X119089999Y-69122203D01*
X119034814Y-68955666D01*
X118942712Y-68806344D01*
X118818656Y-68682288D01*
X118723253Y-68623443D01*
X118669336Y-68590187D01*
X118669331Y-68590185D01*
X118626496Y-68575991D01*
X118502797Y-68535001D01*
X118502795Y-68535000D01*
X118400016Y-68524500D01*
X117125500Y-68524500D01*
X117058461Y-68504815D01*
X117012706Y-68452011D01*
X117001500Y-68400500D01*
X117001500Y-67149096D01*
X117021185Y-67082057D01*
X117037815Y-67061419D01*
X117261546Y-66837687D01*
X117322867Y-66804204D01*
X117383820Y-66806294D01*
X117526366Y-66847707D01*
X117526373Y-66847709D01*
X117561837Y-66850500D01*
X117938162Y-66850499D01*
X117973627Y-66847709D01*
X118125390Y-66803618D01*
X118261420Y-66723170D01*
X118373170Y-66611420D01*
X118453618Y-66475390D01*
X118497709Y-66323627D01*
X118500500Y-66288163D01*
X118500499Y-65911838D01*
X118497709Y-65876373D01*
X118453618Y-65724610D01*
X118373170Y-65588580D01*
X118373168Y-65588578D01*
X118373165Y-65588574D01*
X118261425Y-65476834D01*
X118261416Y-65476827D01*
X118125390Y-65396382D01*
X118125385Y-65396380D01*
X117973633Y-65352292D01*
X117973620Y-65352290D01*
X117938170Y-65349500D01*
X117938163Y-65349500D01*
X117900097Y-65349500D01*
X117833058Y-65329815D01*
X117812416Y-65313181D01*
X117333064Y-64833829D01*
X117299579Y-64772506D01*
X117304563Y-64702814D01*
X117346435Y-64646881D01*
X117411899Y-64622464D01*
X117455339Y-64627071D01*
X117526373Y-64647709D01*
X117561837Y-64650500D01*
X117938162Y-64650499D01*
X117973627Y-64647709D01*
X118125390Y-64603618D01*
X118261420Y-64523170D01*
X118373170Y-64411420D01*
X118453618Y-64275390D01*
X118497709Y-64123627D01*
X118500500Y-64088163D01*
X118500499Y-63711838D01*
X118497709Y-63676373D01*
X118453618Y-63524610D01*
X118373170Y-63388580D01*
X118369199Y-63381865D01*
X118371623Y-63380430D01*
X118350985Y-63327858D01*
X118350500Y-63316899D01*
X118350500Y-62592534D01*
X118370185Y-62525495D01*
X118422989Y-62479740D01*
X118461897Y-62469176D01*
X118502797Y-62464999D01*
X118669334Y-62409814D01*
X118818656Y-62317712D01*
X118942712Y-62193656D01*
X119034814Y-62044334D01*
X119089999Y-61877797D01*
X119100500Y-61775009D01*
X119100499Y-60224992D01*
X119089999Y-60122203D01*
X119034814Y-59955666D01*
X118942712Y-59806344D01*
X118818656Y-59682288D01*
X118669334Y-59590186D01*
X118502797Y-59535001D01*
X118502795Y-59535000D01*
X118400016Y-59524500D01*
X117125500Y-59524500D01*
X117058461Y-59504815D01*
X117012706Y-59452011D01*
X117001500Y-59400500D01*
X117001500Y-58749096D01*
X117021185Y-58682057D01*
X117037815Y-58661419D01*
X117812416Y-57886817D01*
X117873739Y-57853333D01*
X117900097Y-57850499D01*
X117938150Y-57850499D01*
X117938162Y-57850499D01*
X117973627Y-57847709D01*
X118125390Y-57803618D01*
X118261420Y-57723170D01*
X118373170Y-57611420D01*
X118453618Y-57475390D01*
X118497709Y-57323627D01*
X118500500Y-57288163D01*
X118500499Y-56911838D01*
X118497709Y-56876373D01*
X118453618Y-56724610D01*
X118373170Y-56588580D01*
X118373168Y-56588578D01*
X118373165Y-56588574D01*
X118261425Y-56476834D01*
X118261416Y-56476827D01*
X118125390Y-56396382D01*
X118125385Y-56396380D01*
X117973633Y-56352292D01*
X117973620Y-56352290D01*
X117938163Y-56349500D01*
X117561849Y-56349500D01*
X117561824Y-56349501D01*
X117526372Y-56352291D01*
X117374614Y-56396380D01*
X117374609Y-56396382D01*
X117238583Y-56476827D01*
X117238574Y-56476834D01*
X117126834Y-56588574D01*
X117126827Y-56588583D01*
X117046382Y-56724609D01*
X117046380Y-56724614D01*
X117002292Y-56876366D01*
X117002290Y-56876379D01*
X116999500Y-56911829D01*
X116999500Y-56949902D01*
X116979815Y-57016941D01*
X116963181Y-57037583D01*
X115920481Y-58080282D01*
X115920480Y-58080284D01*
X115888588Y-58135523D01*
X115841423Y-58217215D01*
X115800499Y-58369943D01*
X115800499Y-58369945D01*
X115800499Y-58538046D01*
X115800500Y-58538059D01*
X115800500Y-59463197D01*
X115780815Y-59530236D01*
X115728011Y-59575991D01*
X115658853Y-59585935D01*
X115638183Y-59581128D01*
X115566244Y-59557754D01*
X115566240Y-59557753D01*
X115392502Y-59530236D01*
X115356287Y-59524500D01*
X115143713Y-59524500D01*
X115107498Y-59530236D01*
X114933760Y-59557753D01*
X114731582Y-59623445D01*
X114681794Y-59648813D01*
X114613124Y-59661709D01*
X114548384Y-59635432D01*
X114508128Y-59578325D01*
X114501500Y-59538328D01*
X114501500Y-58749096D01*
X114521185Y-58682057D01*
X114537815Y-58661419D01*
X115312416Y-57886817D01*
X115373739Y-57853333D01*
X115400097Y-57850499D01*
X115438150Y-57850499D01*
X115438162Y-57850499D01*
X115473627Y-57847709D01*
X115625390Y-57803618D01*
X115761420Y-57723170D01*
X115873170Y-57611420D01*
X115953618Y-57475390D01*
X115997709Y-57323627D01*
X116000500Y-57288163D01*
X116000499Y-56911838D01*
X115997709Y-56876373D01*
X115953618Y-56724610D01*
X115873170Y-56588580D01*
X115873168Y-56588578D01*
X115873165Y-56588574D01*
X115761425Y-56476834D01*
X115761416Y-56476827D01*
X115625390Y-56396382D01*
X115625385Y-56396380D01*
X115473633Y-56352292D01*
X115473620Y-56352290D01*
X115438163Y-56349500D01*
X115061849Y-56349500D01*
X115061824Y-56349501D01*
X115026372Y-56352291D01*
X114874614Y-56396380D01*
X114874609Y-56396382D01*
X114738583Y-56476827D01*
X114738574Y-56476834D01*
X114626834Y-56588574D01*
X114626827Y-56588583D01*
X114546382Y-56724609D01*
X114546380Y-56724614D01*
X114502292Y-56876366D01*
X114502290Y-56876379D01*
X114499500Y-56911829D01*
X114499500Y-56949902D01*
X114479815Y-57016941D01*
X114463181Y-57037583D01*
X113420481Y-58080282D01*
X113420480Y-58080284D01*
X113388588Y-58135523D01*
X113341423Y-58217215D01*
X113300499Y-58369943D01*
X113300499Y-58369945D01*
X113300499Y-58538046D01*
X113300500Y-58538059D01*
X113300500Y-59463197D01*
X113280815Y-59530236D01*
X113228011Y-59575991D01*
X113158853Y-59585935D01*
X113138183Y-59581128D01*
X113066244Y-59557754D01*
X113066240Y-59557753D01*
X112892502Y-59530236D01*
X112856287Y-59524500D01*
X112643713Y-59524500D01*
X112607498Y-59530236D01*
X112433760Y-59557753D01*
X112231582Y-59623445D01*
X112181794Y-59648813D01*
X112113124Y-59661709D01*
X112048384Y-59635432D01*
X112008128Y-59578325D01*
X112001500Y-59538328D01*
X112001500Y-58749096D01*
X112021185Y-58682057D01*
X112037815Y-58661419D01*
X112812416Y-57886817D01*
X112873739Y-57853333D01*
X112900097Y-57850499D01*
X112938150Y-57850499D01*
X112938162Y-57850499D01*
X112973627Y-57847709D01*
X113125390Y-57803618D01*
X113261420Y-57723170D01*
X113373170Y-57611420D01*
X113453618Y-57475390D01*
X113497709Y-57323627D01*
X113500500Y-57288163D01*
X113500499Y-56911838D01*
X113497709Y-56876373D01*
X113453618Y-56724610D01*
X113373170Y-56588580D01*
X113373168Y-56588578D01*
X113373165Y-56588574D01*
X113261425Y-56476834D01*
X113261416Y-56476827D01*
X113125390Y-56396382D01*
X113125385Y-56396380D01*
X112973633Y-56352292D01*
X112973620Y-56352290D01*
X112938163Y-56349500D01*
X112561849Y-56349500D01*
X112561824Y-56349501D01*
X112526372Y-56352291D01*
X112374614Y-56396380D01*
X112374609Y-56396382D01*
X112231865Y-56480801D01*
X112230430Y-56478376D01*
X112177858Y-56499015D01*
X112166899Y-56499500D01*
X111406015Y-56499500D01*
X111338976Y-56479815D01*
X111318334Y-56463181D01*
X110633728Y-55778575D01*
X110600243Y-55717252D01*
X110605227Y-55647560D01*
X110647099Y-55591627D01*
X110658288Y-55584162D01*
X110671063Y-55576607D01*
X110761420Y-55523170D01*
X110873170Y-55411420D01*
X110953618Y-55275390D01*
X110997709Y-55123627D01*
X111000500Y-55088163D01*
X111000499Y-54711838D01*
X110997709Y-54676373D01*
X110953618Y-54524610D01*
X110900761Y-54435234D01*
X110869199Y-54381865D01*
X110871623Y-54380430D01*
X110850985Y-54327858D01*
X110850500Y-54316899D01*
X110850500Y-53410718D01*
X110870185Y-53343679D01*
X110918207Y-53300233D01*
X110957815Y-53280052D01*
X110957815Y-53280051D01*
X110957816Y-53280051D01*
X111076728Y-53193657D01*
X111129786Y-53155109D01*
X111129788Y-53155106D01*
X111129792Y-53155104D01*
X111280104Y-53004792D01*
X111399683Y-52840204D01*
X111455011Y-52797540D01*
X111524624Y-52791561D01*
X111586420Y-52824166D01*
X111600313Y-52840199D01*
X111670124Y-52936286D01*
X111719896Y-53004792D01*
X111870213Y-53155109D01*
X112042184Y-53280051D01*
X112042184Y-53280052D01*
X112081793Y-53300233D01*
X112132590Y-53348206D01*
X112149500Y-53410718D01*
X112149500Y-54316899D01*
X112130479Y-54381674D01*
X112130801Y-54381865D01*
X112130051Y-54383132D01*
X112129815Y-54383938D01*
X112128346Y-54386014D01*
X112046382Y-54524609D01*
X112046380Y-54524614D01*
X112002292Y-54676366D01*
X112002290Y-54676379D01*
X111999500Y-54711829D01*
X111999500Y-55088150D01*
X111999501Y-55088175D01*
X112002291Y-55123627D01*
X112046380Y-55275385D01*
X112046382Y-55275390D01*
X112126827Y-55411416D01*
X112126834Y-55411425D01*
X112238574Y-55523165D01*
X112238578Y-55523168D01*
X112238580Y-55523170D01*
X112374610Y-55603618D01*
X112526373Y-55647709D01*
X112561837Y-55650500D01*
X112938162Y-55650499D01*
X112973627Y-55647709D01*
X113125390Y-55603618D01*
X113261420Y-55523170D01*
X113373170Y-55411420D01*
X113453618Y-55275390D01*
X113497709Y-55123627D01*
X113500500Y-55088163D01*
X113500499Y-54711838D01*
X113497709Y-54676373D01*
X113453618Y-54524610D01*
X113400761Y-54435234D01*
X113369199Y-54381865D01*
X113371623Y-54380430D01*
X113350985Y-54327858D01*
X113350500Y-54316899D01*
X113350500Y-53410718D01*
X113370185Y-53343679D01*
X113418207Y-53300233D01*
X113457815Y-53280052D01*
X113457815Y-53280051D01*
X113457816Y-53280051D01*
X113576728Y-53193657D01*
X113629786Y-53155109D01*
X113629788Y-53155106D01*
X113629792Y-53155104D01*
X113780104Y-53004792D01*
X113899683Y-52840204D01*
X113955011Y-52797540D01*
X114024624Y-52791561D01*
X114086420Y-52824166D01*
X114100313Y-52840199D01*
X114170124Y-52936286D01*
X114219896Y-53004792D01*
X114370213Y-53155109D01*
X114542184Y-53280051D01*
X114542184Y-53280052D01*
X114581793Y-53300233D01*
X114632590Y-53348206D01*
X114649500Y-53410718D01*
X114649500Y-54316899D01*
X114630479Y-54381674D01*
X114630801Y-54381865D01*
X114630051Y-54383132D01*
X114629815Y-54383938D01*
X114628346Y-54386014D01*
X114546382Y-54524609D01*
X114546380Y-54524614D01*
X114502292Y-54676366D01*
X114502290Y-54676379D01*
X114499500Y-54711829D01*
X114499500Y-55088150D01*
X114499501Y-55088175D01*
X114502291Y-55123627D01*
X114546380Y-55275385D01*
X114546382Y-55275390D01*
X114626827Y-55411416D01*
X114626834Y-55411425D01*
X114738574Y-55523165D01*
X114738578Y-55523168D01*
X114738580Y-55523170D01*
X114874610Y-55603618D01*
X115026373Y-55647709D01*
X115061837Y-55650500D01*
X115438162Y-55650499D01*
X115473627Y-55647709D01*
X115625390Y-55603618D01*
X115761420Y-55523170D01*
X115873170Y-55411420D01*
X115953618Y-55275390D01*
X115997709Y-55123627D01*
X116000500Y-55088163D01*
X116000499Y-54711838D01*
X115997709Y-54676373D01*
X115953618Y-54524610D01*
X115900761Y-54435234D01*
X115869199Y-54381865D01*
X115871623Y-54380430D01*
X115850985Y-54327858D01*
X115850500Y-54316899D01*
X115850500Y-53410718D01*
X115870185Y-53343679D01*
X115918207Y-53300233D01*
X115957815Y-53280052D01*
X115957815Y-53280051D01*
X115957816Y-53280051D01*
X116129792Y-53155104D01*
X116268604Y-53016291D01*
X116329923Y-52982809D01*
X116399615Y-52987793D01*
X116455549Y-53029664D01*
X116461821Y-53038878D01*
X116465185Y-53044333D01*
X116465186Y-53044334D01*
X116557288Y-53193656D01*
X116681344Y-53317712D01*
X116830666Y-53409814D01*
X116997203Y-53464999D01*
X117038103Y-53469177D01*
X117102793Y-53495573D01*
X117142945Y-53552753D01*
X117149500Y-53592535D01*
X117149500Y-54316899D01*
X117130479Y-54381674D01*
X117130801Y-54381865D01*
X117130051Y-54383132D01*
X117129815Y-54383938D01*
X117128346Y-54386014D01*
X117046382Y-54524609D01*
X117046380Y-54524614D01*
X117002292Y-54676366D01*
X117002290Y-54676379D01*
X116999500Y-54711829D01*
X116999500Y-55088150D01*
X116999501Y-55088175D01*
X117002291Y-55123627D01*
X117046380Y-55275385D01*
X117046382Y-55275390D01*
X117126827Y-55411416D01*
X117126834Y-55411425D01*
X117238574Y-55523165D01*
X117238578Y-55523168D01*
X117238580Y-55523170D01*
X117374610Y-55603618D01*
X117526373Y-55647709D01*
X117561837Y-55650500D01*
X117938162Y-55650499D01*
X117973627Y-55647709D01*
X118125390Y-55603618D01*
X118261420Y-55523170D01*
X118373170Y-55411420D01*
X118453618Y-55275390D01*
X118497709Y-55123627D01*
X118500500Y-55088163D01*
X118500499Y-54711838D01*
X118497709Y-54676373D01*
X118453618Y-54524610D01*
X118400761Y-54435234D01*
X118369199Y-54381865D01*
X118371623Y-54380430D01*
X118350985Y-54327858D01*
X118350500Y-54316899D01*
X118350500Y-53592534D01*
X118370185Y-53525495D01*
X118422989Y-53479740D01*
X118461897Y-53469176D01*
X118502797Y-53464999D01*
X118669334Y-53409814D01*
X118818656Y-53317712D01*
X118942712Y-53193656D01*
X119034814Y-53044334D01*
X119089999Y-52877797D01*
X119100500Y-52775009D01*
X119100499Y-51224992D01*
X119089999Y-51122203D01*
X119034814Y-50955666D01*
X118942712Y-50806344D01*
X118818656Y-50682288D01*
X118715169Y-50618457D01*
X118669336Y-50590187D01*
X118669331Y-50590185D01*
X118667862Y-50589698D01*
X118502797Y-50535001D01*
X118502795Y-50535000D01*
X118400010Y-50524500D01*
X117099998Y-50524500D01*
X117099981Y-50524501D01*
X116997203Y-50535000D01*
X116997200Y-50535001D01*
X116830668Y-50590185D01*
X116830663Y-50590187D01*
X116681342Y-50682289D01*
X116557289Y-50806342D01*
X116461821Y-50961121D01*
X116409873Y-51007845D01*
X116340910Y-51019068D01*
X116276828Y-50991224D01*
X116268601Y-50983705D01*
X116129786Y-50844890D01*
X115957820Y-50719951D01*
X115768414Y-50623444D01*
X115768413Y-50623443D01*
X115768412Y-50623443D01*
X115566243Y-50557754D01*
X115566241Y-50557753D01*
X115566240Y-50557753D01*
X115404957Y-50532208D01*
X115356287Y-50524500D01*
X115143713Y-50524500D01*
X115095042Y-50532208D01*
X114933760Y-50557753D01*
X114933757Y-50557754D01*
X114738778Y-50621107D01*
X114731585Y-50623444D01*
X114542179Y-50719951D01*
X114370213Y-50844890D01*
X114219894Y-50995209D01*
X114219890Y-50995214D01*
X114100318Y-51159793D01*
X114044989Y-51202459D01*
X113975375Y-51208438D01*
X113913580Y-51175833D01*
X113899682Y-51159793D01*
X113780109Y-50995214D01*
X113780105Y-50995209D01*
X113629786Y-50844890D01*
X113457820Y-50719951D01*
X113268414Y-50623444D01*
X113268413Y-50623443D01*
X113268412Y-50623443D01*
X113066243Y-50557754D01*
X113066241Y-50557753D01*
X113066240Y-50557753D01*
X112904957Y-50532208D01*
X112856287Y-50524500D01*
X112643713Y-50524500D01*
X112595042Y-50532208D01*
X112433760Y-50557753D01*
X112433757Y-50557754D01*
X112238778Y-50621107D01*
X112231585Y-50623444D01*
X112042179Y-50719951D01*
X111870213Y-50844890D01*
X111719894Y-50995209D01*
X111719890Y-50995214D01*
X111600318Y-51159793D01*
X111544989Y-51202459D01*
X111475375Y-51208438D01*
X111413580Y-51175833D01*
X111399682Y-51159793D01*
X111280109Y-50995214D01*
X111280105Y-50995209D01*
X111129786Y-50844890D01*
X110957820Y-50719951D01*
X110768414Y-50623444D01*
X110768413Y-50623443D01*
X110768412Y-50623443D01*
X110566243Y-50557754D01*
X110566241Y-50557753D01*
X110566240Y-50557753D01*
X110404957Y-50532208D01*
X110356287Y-50524500D01*
X110143713Y-50524500D01*
X110095042Y-50532208D01*
X109933760Y-50557753D01*
X109933757Y-50557754D01*
X109738778Y-50621107D01*
X109731585Y-50623444D01*
X109542179Y-50719951D01*
X109370213Y-50844890D01*
X109366512Y-50848053D01*
X109365581Y-50846963D01*
X109309882Y-50877364D01*
X109240191Y-50872365D01*
X109195868Y-50843873D01*
X104589350Y-46237355D01*
X104589348Y-46237352D01*
X104470477Y-46118481D01*
X104470476Y-46118480D01*
X104383664Y-46068360D01*
X104383664Y-46068359D01*
X104383660Y-46068358D01*
X104333545Y-46039423D01*
X104180817Y-45998499D01*
X104022703Y-45998499D01*
X104015107Y-45998499D01*
X104015091Y-45998500D01*
X98065729Y-45998500D01*
X97998690Y-45978815D01*
X97952935Y-45926011D01*
X97942991Y-45856853D01*
X97955244Y-45818205D01*
X98001095Y-45728217D01*
X98066757Y-45526130D01*
X98066757Y-45526127D01*
X98100000Y-45316246D01*
X98100000Y-45103753D01*
X98066757Y-44893872D01*
X98066757Y-44893869D01*
X98001095Y-44691782D01*
X97904624Y-44502449D01*
X97865270Y-44448282D01*
X97865269Y-44448282D01*
X97232962Y-45080589D01*
X97215925Y-45017007D01*
X97150099Y-44902993D01*
X97057007Y-44809901D01*
X96942993Y-44744075D01*
X96879409Y-44727037D01*
X97511716Y-44094728D01*
X97457550Y-44055375D01*
X97447954Y-44050486D01*
X97397157Y-44002512D01*
X97380361Y-43934692D01*
X97402897Y-43868556D01*
X97447954Y-43829514D01*
X97457554Y-43824622D01*
X97511716Y-43785270D01*
X97511717Y-43785270D01*
X96879408Y-43152962D01*
X96942993Y-43135925D01*
X97057007Y-43070099D01*
X97150099Y-42977007D01*
X97215925Y-42862993D01*
X97232962Y-42799409D01*
X97865270Y-43431717D01*
X97865270Y-43431716D01*
X97904622Y-43377554D01*
X98001095Y-43188217D01*
X98066757Y-42986130D01*
X98066757Y-42986127D01*
X98100000Y-42776246D01*
X98100000Y-42563753D01*
X98066757Y-42353872D01*
X98066757Y-42353869D01*
X98001095Y-42151782D01*
X97938090Y-42028129D01*
X97911010Y-41974983D01*
X103899500Y-41974983D01*
X103899500Y-43525001D01*
X103899501Y-43525018D01*
X103910000Y-43627796D01*
X103910001Y-43627799D01*
X103955894Y-43766294D01*
X103965186Y-43794334D01*
X104057288Y-43943656D01*
X104181344Y-44067712D01*
X104330666Y-44159814D01*
X104497203Y-44214999D01*
X104599991Y-44225500D01*
X105900008Y-44225499D01*
X106002797Y-44214999D01*
X106169334Y-44159814D01*
X106318656Y-44067712D01*
X106442712Y-43943656D01*
X106534814Y-43794334D01*
X106534814Y-43794331D01*
X106538178Y-43788879D01*
X106590126Y-43742154D01*
X106659088Y-43730931D01*
X106723170Y-43758774D01*
X106731398Y-43766294D01*
X106870213Y-43905109D01*
X107042179Y-44030048D01*
X107042181Y-44030049D01*
X107042184Y-44030051D01*
X107231588Y-44126557D01*
X107433757Y-44192246D01*
X107643713Y-44225500D01*
X107643714Y-44225500D01*
X107856286Y-44225500D01*
X107856287Y-44225500D01*
X108066243Y-44192246D01*
X108268412Y-44126557D01*
X108457816Y-44030051D01*
X108492369Y-44004947D01*
X108629786Y-43905109D01*
X108629788Y-43905106D01*
X108629792Y-43905104D01*
X108780104Y-43754792D01*
X108899683Y-43590204D01*
X108955011Y-43547540D01*
X109024624Y-43541561D01*
X109086420Y-43574166D01*
X109100313Y-43590199D01*
X109176221Y-43694678D01*
X109219896Y-43754792D01*
X109370213Y-43905109D01*
X109542179Y-44030048D01*
X109542181Y-44030049D01*
X109542184Y-44030051D01*
X109731588Y-44126557D01*
X109933757Y-44192246D01*
X110143713Y-44225500D01*
X110143714Y-44225500D01*
X110356286Y-44225500D01*
X110356287Y-44225500D01*
X110566243Y-44192246D01*
X110768412Y-44126557D01*
X110957816Y-44030051D01*
X110992369Y-44004947D01*
X111129786Y-43905109D01*
X111129788Y-43905106D01*
X111129792Y-43905104D01*
X111280104Y-43754792D01*
X111399683Y-43590204D01*
X111455011Y-43547540D01*
X111524624Y-43541561D01*
X111586420Y-43574166D01*
X111600313Y-43590199D01*
X111676221Y-43694678D01*
X111719896Y-43754792D01*
X111870213Y-43905109D01*
X112042179Y-44030048D01*
X112042181Y-44030049D01*
X112042184Y-44030051D01*
X112231588Y-44126557D01*
X112433757Y-44192246D01*
X112643713Y-44225500D01*
X112643714Y-44225500D01*
X112856286Y-44225500D01*
X112856287Y-44225500D01*
X113066243Y-44192246D01*
X113268412Y-44126557D01*
X113457816Y-44030051D01*
X113492369Y-44004947D01*
X113629786Y-43905109D01*
X113629788Y-43905106D01*
X113629792Y-43905104D01*
X113780104Y-43754792D01*
X113899683Y-43590204D01*
X113955011Y-43547540D01*
X114024624Y-43541561D01*
X114086420Y-43574166D01*
X114100313Y-43590199D01*
X114176221Y-43694678D01*
X114219896Y-43754792D01*
X114370213Y-43905109D01*
X114542179Y-44030048D01*
X114542181Y-44030049D01*
X114542184Y-44030051D01*
X114731588Y-44126557D01*
X114933757Y-44192246D01*
X115143713Y-44225500D01*
X115143714Y-44225500D01*
X115356286Y-44225500D01*
X115356287Y-44225500D01*
X115566243Y-44192246D01*
X115768412Y-44126557D01*
X115957816Y-44030051D01*
X115992369Y-44004947D01*
X116129786Y-43905109D01*
X116129788Y-43905106D01*
X116129792Y-43905104D01*
X116280104Y-43754792D01*
X116399683Y-43590204D01*
X116455011Y-43547540D01*
X116524624Y-43541561D01*
X116586420Y-43574166D01*
X116600313Y-43590199D01*
X116676221Y-43694678D01*
X116719896Y-43754792D01*
X116870213Y-43905109D01*
X117042179Y-44030048D01*
X117042181Y-44030049D01*
X117042184Y-44030051D01*
X117231588Y-44126557D01*
X117433757Y-44192246D01*
X117643713Y-44225500D01*
X117643714Y-44225500D01*
X117856286Y-44225500D01*
X117856287Y-44225500D01*
X118066243Y-44192246D01*
X118268412Y-44126557D01*
X118457816Y-44030051D01*
X118492369Y-44004947D01*
X118629786Y-43905109D01*
X118629788Y-43905106D01*
X118629792Y-43905104D01*
X118780104Y-43754792D01*
X118780106Y-43754788D01*
X118780109Y-43754786D01*
X118905048Y-43582820D01*
X118905047Y-43582820D01*
X118905051Y-43582816D01*
X119001557Y-43393412D01*
X119067246Y-43191243D01*
X119100500Y-42981287D01*
X119100500Y-42518713D01*
X119067246Y-42308757D01*
X119001557Y-42106588D01*
X118905051Y-41917184D01*
X118905049Y-41917181D01*
X118905048Y-41917179D01*
X118780109Y-41745213D01*
X118629786Y-41594890D01*
X118457820Y-41469951D01*
X118268414Y-41373444D01*
X118268413Y-41373443D01*
X118268412Y-41373443D01*
X118066243Y-41307754D01*
X118066241Y-41307753D01*
X118066240Y-41307753D01*
X117904957Y-41282208D01*
X117856287Y-41274500D01*
X117643713Y-41274500D01*
X117595042Y-41282208D01*
X117433760Y-41307753D01*
X117231585Y-41373444D01*
X117042179Y-41469951D01*
X116870213Y-41594890D01*
X116719894Y-41745209D01*
X116719890Y-41745214D01*
X116600318Y-41909793D01*
X116544989Y-41952459D01*
X116475375Y-41958438D01*
X116413580Y-41925833D01*
X116399682Y-41909793D01*
X116280109Y-41745214D01*
X116280105Y-41745209D01*
X116129786Y-41594890D01*
X115957820Y-41469951D01*
X115768414Y-41373444D01*
X115768413Y-41373443D01*
X115768412Y-41373443D01*
X115566243Y-41307754D01*
X115566241Y-41307753D01*
X115566240Y-41307753D01*
X115404957Y-41282208D01*
X115356287Y-41274500D01*
X115143713Y-41274500D01*
X115095042Y-41282208D01*
X114933760Y-41307753D01*
X114731585Y-41373444D01*
X114542179Y-41469951D01*
X114370213Y-41594890D01*
X114219894Y-41745209D01*
X114219890Y-41745214D01*
X114100318Y-41909793D01*
X114044989Y-41952459D01*
X113975375Y-41958438D01*
X113913580Y-41925833D01*
X113899682Y-41909793D01*
X113780109Y-41745214D01*
X113780105Y-41745209D01*
X113629786Y-41594890D01*
X113457820Y-41469951D01*
X113268414Y-41373444D01*
X113268413Y-41373443D01*
X113268412Y-41373443D01*
X113066243Y-41307754D01*
X113066241Y-41307753D01*
X113066240Y-41307753D01*
X112904957Y-41282208D01*
X112856287Y-41274500D01*
X112643713Y-41274500D01*
X112595042Y-41282208D01*
X112433760Y-41307753D01*
X112231585Y-41373444D01*
X112042179Y-41469951D01*
X111870213Y-41594890D01*
X111719894Y-41745209D01*
X111719890Y-41745214D01*
X111600318Y-41909793D01*
X111544989Y-41952459D01*
X111475375Y-41958438D01*
X111413580Y-41925833D01*
X111399682Y-41909793D01*
X111280109Y-41745214D01*
X111280105Y-41745209D01*
X111129786Y-41594890D01*
X110957820Y-41469951D01*
X110768414Y-41373444D01*
X110768413Y-41373443D01*
X110768412Y-41373443D01*
X110566243Y-41307754D01*
X110566241Y-41307753D01*
X110566240Y-41307753D01*
X110404957Y-41282208D01*
X110356287Y-41274500D01*
X110143713Y-41274500D01*
X110095042Y-41282208D01*
X109933760Y-41307753D01*
X109731585Y-41373444D01*
X109542179Y-41469951D01*
X109370213Y-41594890D01*
X109219894Y-41745209D01*
X109219890Y-41745214D01*
X109100318Y-41909793D01*
X109044989Y-41952459D01*
X108975375Y-41958438D01*
X108913580Y-41925833D01*
X108899682Y-41909793D01*
X108780109Y-41745214D01*
X108780105Y-41745209D01*
X108629786Y-41594890D01*
X108457820Y-41469951D01*
X108268414Y-41373444D01*
X108268413Y-41373443D01*
X108268412Y-41373443D01*
X108066243Y-41307754D01*
X108066241Y-41307753D01*
X108066240Y-41307753D01*
X107904957Y-41282208D01*
X107856287Y-41274500D01*
X107643713Y-41274500D01*
X107595042Y-41282208D01*
X107433760Y-41307753D01*
X107231585Y-41373444D01*
X107042179Y-41469951D01*
X106870215Y-41594889D01*
X106731398Y-41733706D01*
X106670075Y-41767190D01*
X106600383Y-41762206D01*
X106544450Y-41720334D01*
X106538178Y-41711120D01*
X106442712Y-41556344D01*
X106318657Y-41432289D01*
X106318656Y-41432288D01*
X106223253Y-41373443D01*
X106169336Y-41340187D01*
X106169331Y-41340185D01*
X106167862Y-41339698D01*
X106002797Y-41285001D01*
X106002795Y-41285000D01*
X105900010Y-41274500D01*
X104599998Y-41274500D01*
X104599981Y-41274501D01*
X104497203Y-41285000D01*
X104497200Y-41285001D01*
X104330668Y-41340185D01*
X104330663Y-41340187D01*
X104181342Y-41432289D01*
X104057289Y-41556342D01*
X103965187Y-41705663D01*
X103965185Y-41705668D01*
X103962915Y-41712518D01*
X103910001Y-41872203D01*
X103910001Y-41872204D01*
X103910000Y-41872204D01*
X103899500Y-41974983D01*
X97911010Y-41974983D01*
X97904624Y-41962449D01*
X97865270Y-41908282D01*
X97865269Y-41908282D01*
X97232962Y-42540590D01*
X97215925Y-42477007D01*
X97150099Y-42362993D01*
X97057007Y-42269901D01*
X96942993Y-42204075D01*
X96879409Y-42187037D01*
X97511716Y-41554728D01*
X97457550Y-41515375D01*
X97268217Y-41418904D01*
X97066129Y-41353242D01*
X96856246Y-41320000D01*
X96643754Y-41320000D01*
X96433872Y-41353242D01*
X96433869Y-41353242D01*
X96231782Y-41418904D01*
X96042439Y-41515380D01*
X95988282Y-41554727D01*
X95988282Y-41554728D01*
X96620591Y-42187037D01*
X96557007Y-42204075D01*
X96442993Y-42269901D01*
X96349901Y-42362993D01*
X96284075Y-42477007D01*
X96267037Y-42540591D01*
X95634728Y-41908282D01*
X95634727Y-41908282D01*
X95595380Y-41962439D01*
X95498904Y-42151782D01*
X95433242Y-42353869D01*
X95433242Y-42353872D01*
X95400000Y-42563753D01*
X95400000Y-42776246D01*
X95433242Y-42986127D01*
X95433242Y-42986130D01*
X95498904Y-43188217D01*
X95595375Y-43377550D01*
X95634728Y-43431716D01*
X96267037Y-42799408D01*
X96284075Y-42862993D01*
X96349901Y-42977007D01*
X96442993Y-43070099D01*
X96557007Y-43135925D01*
X96620591Y-43152962D01*
X96019971Y-43753581D01*
X96098711Y-43870895D01*
X96099920Y-43874729D01*
X96102844Y-43877491D01*
X96110343Y-43907778D01*
X96119727Y-43937529D01*
X96118671Y-43941408D01*
X96119638Y-43945312D01*
X96109573Y-43974844D01*
X96101383Y-44004947D01*
X96098397Y-44007640D01*
X96097100Y-44011447D01*
X96052051Y-44050483D01*
X96042440Y-44055380D01*
X95988282Y-44094727D01*
X95988282Y-44094728D01*
X96620591Y-44727037D01*
X96557007Y-44744075D01*
X96442993Y-44809901D01*
X96349901Y-44902993D01*
X96284075Y-45017007D01*
X96267037Y-45080591D01*
X95634728Y-44448282D01*
X95634727Y-44448282D01*
X95595380Y-44502439D01*
X95498904Y-44691782D01*
X95433242Y-44893869D01*
X95433242Y-44893872D01*
X95400000Y-45103753D01*
X95400000Y-45316246D01*
X95433242Y-45526127D01*
X95433242Y-45526130D01*
X95498904Y-45728217D01*
X95544756Y-45818205D01*
X95557652Y-45886874D01*
X95531376Y-45951614D01*
X95474270Y-45991872D01*
X95434271Y-45998500D01*
X84447700Y-45998500D01*
X84406779Y-46009464D01*
X84406779Y-46009465D01*
X84369511Y-46019451D01*
X84294974Y-46039423D01*
X84294969Y-46039426D01*
X84158050Y-46118475D01*
X84158042Y-46118481D01*
X84046238Y-46230286D01*
X82974134Y-47302389D01*
X82912811Y-47335874D01*
X82843119Y-47330890D01*
X82787186Y-47289018D01*
X82768522Y-47253025D01*
X82761557Y-47231588D01*
X82665051Y-47042184D01*
X82665049Y-47042181D01*
X82665048Y-47042179D01*
X82540109Y-46870213D01*
X82389786Y-46719890D01*
X82217820Y-46594951D01*
X82217115Y-46594591D01*
X82209054Y-46590485D01*
X82158259Y-46542512D01*
X82141463Y-46474692D01*
X82163999Y-46408556D01*
X82209054Y-46369515D01*
X82217816Y-46365051D01*
X82239789Y-46349086D01*
X82389786Y-46240109D01*
X82389788Y-46240106D01*
X82389792Y-46240104D01*
X82540104Y-46089792D01*
X82540106Y-46089788D01*
X82540109Y-46089786D01*
X82665048Y-45917820D01*
X82665047Y-45917820D01*
X82665051Y-45917816D01*
X82761557Y-45728412D01*
X82827246Y-45526243D01*
X82860500Y-45316287D01*
X82860500Y-45103713D01*
X82827246Y-44893757D01*
X82761557Y-44691588D01*
X82665051Y-44502184D01*
X82665049Y-44502181D01*
X82665048Y-44502179D01*
X82540109Y-44330213D01*
X82426569Y-44216673D01*
X82393084Y-44155350D01*
X82398068Y-44085658D01*
X82439940Y-44029725D01*
X82470915Y-44012810D01*
X82602331Y-43963796D01*
X82717546Y-43877546D01*
X82803796Y-43762331D01*
X82854091Y-43627483D01*
X82860500Y-43567873D01*
X82860499Y-41772128D01*
X82854091Y-41712517D01*
X82817617Y-41614726D01*
X82803798Y-41577673D01*
X82803793Y-41577664D01*
X82717547Y-41462455D01*
X82717544Y-41462452D01*
X82602335Y-41376206D01*
X82602328Y-41376202D01*
X82467482Y-41325908D01*
X82467483Y-41325908D01*
X82407883Y-41319501D01*
X82407881Y-41319500D01*
X82407873Y-41319500D01*
X82407864Y-41319500D01*
X80612129Y-41319500D01*
X80612123Y-41319501D01*
X80552516Y-41325908D01*
X80417671Y-41376202D01*
X80417664Y-41376206D01*
X80302455Y-41462452D01*
X80302452Y-41462455D01*
X80216206Y-41577664D01*
X80216202Y-41577671D01*
X80165908Y-41712517D01*
X80160031Y-41767190D01*
X80159501Y-41772123D01*
X80159500Y-41772135D01*
X80159500Y-43567870D01*
X80159501Y-43567876D01*
X80165908Y-43627483D01*
X80216202Y-43762328D01*
X80216206Y-43762335D01*
X80302452Y-43877544D01*
X80302455Y-43877547D01*
X80417664Y-43963793D01*
X80417671Y-43963797D01*
X80549082Y-44012810D01*
X80605016Y-44054681D01*
X80629433Y-44120145D01*
X80614582Y-44188418D01*
X80593431Y-44216673D01*
X80479889Y-44330215D01*
X80354951Y-44502179D01*
X80258444Y-44691585D01*
X80192753Y-44893760D01*
X80159500Y-45103713D01*
X80159500Y-45316286D01*
X80192753Y-45526239D01*
X80258444Y-45728414D01*
X80354951Y-45917820D01*
X80479890Y-46089786D01*
X80630213Y-46240109D01*
X80802182Y-46365050D01*
X80810946Y-46369516D01*
X80861742Y-46417491D01*
X80878536Y-46485312D01*
X80855998Y-46551447D01*
X80810946Y-46590484D01*
X80802182Y-46594949D01*
X80630213Y-46719890D01*
X80479890Y-46870213D01*
X80354951Y-47042179D01*
X80258444Y-47231585D01*
X80192753Y-47433760D01*
X80171771Y-47566239D01*
X80159500Y-47643713D01*
X80159500Y-47856287D01*
X80192754Y-48066243D01*
X80258262Y-48267856D01*
X80258444Y-48268414D01*
X80354951Y-48457820D01*
X80479890Y-48629786D01*
X80498873Y-48648769D01*
X80532358Y-48710092D01*
X80527374Y-48779784D01*
X80498873Y-48824131D01*
X79878481Y-49444522D01*
X79878480Y-49444524D01*
X79839026Y-49512861D01*
X79818516Y-49548385D01*
X79803734Y-49573989D01*
X79799423Y-49581455D01*
X79758499Y-49734183D01*
X79758499Y-49734185D01*
X79758499Y-49902286D01*
X79758500Y-49902299D01*
X79758500Y-50680090D01*
X79758499Y-50680108D01*
X79758499Y-50845814D01*
X79758498Y-50845814D01*
X79799423Y-50998545D01*
X79817309Y-51029524D01*
X79817308Y-51029524D01*
X79817309Y-51029525D01*
X79878475Y-51135469D01*
X79878481Y-51135477D01*
X79997349Y-51254345D01*
X79997355Y-51254350D01*
X80498873Y-51755868D01*
X80532358Y-51817191D01*
X80527374Y-51886883D01*
X80498875Y-51931228D01*
X80479890Y-51950213D01*
X80354951Y-52122179D01*
X80258444Y-52311585D01*
X80192753Y-52513760D01*
X80159500Y-52723713D01*
X80159500Y-52936287D01*
X80167658Y-52987793D01*
X80192754Y-53146244D01*
X80192754Y-53146247D01*
X80206491Y-53188523D01*
X80208486Y-53258364D01*
X80176241Y-53314522D01*
X79589286Y-53901478D01*
X79477481Y-54013282D01*
X79477480Y-54013284D01*
X79438063Y-54081557D01*
X79398423Y-54150215D01*
X79357499Y-54302943D01*
X79357499Y-54302945D01*
X79357499Y-54471046D01*
X79357500Y-54471059D01*
X79357500Y-62708903D01*
X79337815Y-62775942D01*
X79285011Y-62821697D01*
X79215853Y-62831641D01*
X79152297Y-62802616D01*
X79145819Y-62796584D01*
X73428102Y-57078867D01*
X73394617Y-57017544D01*
X73397851Y-56952874D01*
X73442246Y-56816243D01*
X73475500Y-56606287D01*
X73475500Y-56393713D01*
X73442246Y-56183757D01*
X73376557Y-55981588D01*
X73280051Y-55792184D01*
X73280049Y-55792181D01*
X73280048Y-55792179D01*
X73155109Y-55620213D01*
X73004786Y-55469890D01*
X72832820Y-55344951D01*
X72643414Y-55248444D01*
X72643413Y-55248443D01*
X72643412Y-55248443D01*
X72441243Y-55182754D01*
X72441241Y-55182753D01*
X72441240Y-55182753D01*
X72279957Y-55157208D01*
X72231287Y-55149500D01*
X71768713Y-55149500D01*
X71720042Y-55157208D01*
X71558760Y-55182753D01*
X71356585Y-55248444D01*
X71167179Y-55344951D01*
X70995213Y-55469890D01*
X70844890Y-55620213D01*
X70719951Y-55792179D01*
X70623444Y-55981585D01*
X70557753Y-56183760D01*
X70531061Y-56352290D01*
X70524500Y-56393713D01*
X68000500Y-56393713D01*
X68000500Y-47143713D01*
X70499500Y-47143713D01*
X70499500Y-47356286D01*
X70532753Y-47566239D01*
X70598444Y-47768414D01*
X70694951Y-47957820D01*
X70819890Y-48129786D01*
X70958705Y-48268601D01*
X70992190Y-48329924D01*
X70987206Y-48399616D01*
X70945334Y-48455549D01*
X70936121Y-48461821D01*
X70781342Y-48557289D01*
X70657289Y-48681342D01*
X70565187Y-48830663D01*
X70565186Y-48830666D01*
X70510001Y-48997203D01*
X70510001Y-48997204D01*
X70510000Y-48997204D01*
X70499500Y-49099983D01*
X70499500Y-50400001D01*
X70499501Y-50400018D01*
X70510000Y-50502796D01*
X70510001Y-50502799D01*
X70565185Y-50669331D01*
X70565187Y-50669336D01*
X70576516Y-50687703D01*
X70657288Y-50818656D01*
X70781344Y-50942712D01*
X70930666Y-51034814D01*
X71097203Y-51089999D01*
X71199991Y-51100500D01*
X72800008Y-51100499D01*
X72902797Y-51089999D01*
X73069334Y-51034814D01*
X73218656Y-50942712D01*
X73342712Y-50818656D01*
X73434814Y-50669334D01*
X73489999Y-50502797D01*
X73500500Y-50400009D01*
X73500499Y-49099992D01*
X73489999Y-48997203D01*
X73434814Y-48830666D01*
X73342712Y-48681344D01*
X73218656Y-48557288D01*
X73069334Y-48465186D01*
X73069333Y-48465185D01*
X73063878Y-48461821D01*
X73017154Y-48409873D01*
X73005931Y-48340910D01*
X73033775Y-48276828D01*
X73041272Y-48268623D01*
X73180104Y-48129792D01*
X73209873Y-48088819D01*
X73305048Y-47957820D01*
X73305047Y-47957820D01*
X73305051Y-47957816D01*
X73401557Y-47768412D01*
X73467246Y-47566243D01*
X73500500Y-47356287D01*
X73500500Y-47143713D01*
X73467246Y-46933757D01*
X73401557Y-46731588D01*
X73305051Y-46542184D01*
X73305049Y-46542181D01*
X73305048Y-46542179D01*
X73180109Y-46370213D01*
X73029786Y-46219890D01*
X72857820Y-46094951D01*
X72668414Y-45998444D01*
X72668413Y-45998443D01*
X72668412Y-45998443D01*
X72466243Y-45932754D01*
X72466241Y-45932753D01*
X72466240Y-45932753D01*
X72304957Y-45907208D01*
X72256287Y-45899500D01*
X71743713Y-45899500D01*
X71695042Y-45907208D01*
X71533760Y-45932753D01*
X71533757Y-45932754D01*
X71391997Y-45978815D01*
X71331585Y-45998444D01*
X71142179Y-46094951D01*
X70970213Y-46219890D01*
X70819890Y-46370213D01*
X70694951Y-46542179D01*
X70598444Y-46731585D01*
X70532753Y-46933760D01*
X70499500Y-47143713D01*
X68000500Y-47143713D01*
X68000500Y-45312249D01*
X68020185Y-45245210D01*
X68050100Y-45213049D01*
X68839579Y-44620940D01*
X77633767Y-38025299D01*
X77699209Y-38000824D01*
X77708167Y-38000500D01*
X121875500Y-38000500D01*
X121942539Y-38020185D01*
G37*
%TD.AperFunction*%
%TD*%
M02*
